/* XPM */
static char *b1963f13000b4c5da049193777feb226oQlgooRZxS5sSiKr[] = {
/* columns rows colors chars-per-pixel */
"64 64 241 2 ",
"   c #010201",
".  c #0C0203",
"X  c #0C040C",
"o  c #0D0C0E",
"O  c #060709",
"+  c #15050D",
"@  c #120B0C",
"#  c #190C0E",
"$  c #18060E",
"%  c #0E100D",
"&  c #14140E",
"*  c #1A130D",
"=  c #1B1B0D",
"-  c #161E0B",
";  c #0E0B10",
":  c #110D10",
">  c #1B0C10",
",  c #131311",
"<  c #1B1411",
"1  c #1E1B12",
"2  c #191B18",
"3  c #28160F",
"4  c #371B0F",
"5  c #221914",
"6  c #361D10",
"7  c #1B250D",
"8  c #19340C",
"9  c #3E2211",
"0  c #2A350E",
"q  c #2F2B2A",
"w  c #592C0C",
"e  c #412310",
"r  c #4D2911",
"t  c #572E13",
"y  c #5D3113",
"u  c #4B3310",
"i  c #7D3E0D",
"p  c #623413",
"a  c #6F3B14",
"s  c #713C14",
"d  c #65320C",
"f  c #4B2A19",
"g  c #1B480A",
"h  c #195908",
"j  c #265B0D",
"k  c #2B5315",
"l  c #264A0F",
"z  c #1C6708",
"x  c #097904",
"c  c #1A7707",
"v  c #286A0B",
"b  c #23750B",
"n  c #2A7D0B",
"m  c #237A0B",
"M  c #337A0A",
"N  c #2B7511",
"B  c #377614",
"V  c #306D11",
"C  c #394F2F",
"Z  c #7D4315",
"A  c #437918",
"S  c #404A12",
"D  c #4D4944",
"F  c #514C47",
"G  c #54534C",
"H  c #5C5B53",
"J  c #5F6058",
"K  c #66645B",
"L  c #7B6552",
"P  c #6F6860",
"I  c #79716A",
"U  c #823F0A",
"Y  c #89430A",
"T  c #844516",
"R  c #8D4B17",
"E  c #934D15",
"W  c #944E19",
"Q  c #995219",
"!  c #91480E",
"~  c #A65515",
"^  c #A95613",
"/  c #A55618",
"(  c #A75819",
")  c #AA5919",
"_  c #AD5916",
"`  c #B15D19",
"'  c #B15911",
"]  c #B8611B",
"[  c #9C5A20",
"{  c #B36A2B",
"}  c #A95F21",
"|  c #BA7A42",
" . c #0B8402",
".. c #0B8B02",
"X. c #058C01",
"o. c #128603",
"O. c #148C03",
"+. c #1B8C05",
"@. c #1C8D09",
"#. c #1A8707",
"$. c #0B9303",
"%. c #149304",
"&. c #1C9305",
"*. c #139B04",
"=. c #1C9B05",
"-. c #1D940A",
";. c #1D9B0A",
":. c #159C09",
">. c #1F9E10",
",. c #238D05",
"<. c #228D08",
"1. c #2A8C0A",
"2. c #288609",
"3. c #36890C",
"4. c #239405",
"5. c #2A9406",
"6. c #249A06",
"7. c #2B9B06",
"8. c #24940A",
"9. c #2B950B",
"0. c #249B0A",
"q. c #2C9C0B",
"w. c #329506",
"e. c #349B06",
"r. c #32950B",
"t. c #3A950D",
"y. c #339C0C",
"u. c #3B9C0C",
"i. c #3A9F07",
"p. c #278A11",
"a. c #398611",
"s. c #2D9D12",
"d. c #289711",
"f. c #349410",
"g. c #3C9513",
"h. c #339D11",
"j. c #3B9D12",
"k. c #1CA408",
"l. c #23A306",
"z. c #2DA206",
"x. c #25A30B",
"c. c #2CA30B",
"v. c #2CAA0C",
"b. c #25AC0A",
"n. c #33A30C",
"m. c #3BA30D",
"M. c #34AA0C",
"N. c #3BAB0D",
"B. c #37A407",
"V. c #35B20D",
"C. c #3BB20D",
"Z. c #2CA311",
"A. c #2AA811",
"S. c #35A412",
"D. c #3CA412",
"F. c #34AB12",
"G. c #3CAB12",
"H. c #3AAB1A",
"J. c #3DB213",
"K. c #36B413",
"L. c #2EB00A",
"P. c #44990D",
"I. c #4A8A13",
"U. c #439C13",
"Y. c #499616",
"T. c #529516",
"R. c #43A40D",
"E. c #43AA0E",
"W. c #4AAB0D",
"Q. c #49A30F",
"!. c #4CB30E",
"~. c #43B40D",
"^. c #51B60F",
"/. c #43A413",
"(. c #4BA513",
"). c #43AB13",
"_. c #4BAC14",
"`. c #43AB18",
"'. c #4BAD1A",
"]. c #44A718",
"[. c #52AC14",
"{. c #53AD1A",
"}. c #53A416",
"|. c #44B313",
" X c #4CB314",
".X c #4CBB14",
"XX c #45B31A",
"oX c #4CB519",
"OX c #4CBB19",
"+X c #44BB17",
"@X c #52B315",
"#X c #53B319",
"$X c #53BB1B",
"%X c #5ABB1B",
"&X c #57B717",
"*X c #64BD1D",
"=X c #55A721",
"-X c #59C21B",
";X c #5EC722",
":X c #65CA1F",
">X c #8F897F",
",X c #8B8C80",
"<X c #949589",
"1X c #98978B",
"2X c #9D9E93",
"3X c #909087",
"4X c #AB9E96",
"5X c #A19D93",
"6X c #A0A093",
"7X c #A3A49A",
"8X c #B6A695",
"9X c #ACA99C",
"0X c #C4A88F",
"qX c #C6B7AD",
"wX c #C8B8AC",
"eX c #CABCB2",
"rX c #D4BDA5",
"tX c #CAC4B6",
"yX c #CAC4B8",
"uX c #D1C4BA",
"iX c #D4C9BD",
"pX c #D0C2B7",
"aX c #DBC2A4",
"sX c #E9D3B3",
"dX c #EBD5B5",
"fX c #D5CBC3",
"gX c #D8CCC1",
"hX c #DDD2C6",
"jX c #DBD4C9",
"kX c #E0D7CB",
"lX c #EAE4D4",
"zX c #EDE9D9",
"xX c #EAE5D6",
"cX c #F1EDDD",
"vX c #F1EDE1",
"bX c #FAFAE6",
"nX c #FEFEEB",
"mX c #F7F5E3",
"MX c #FEFEF5",
"NX c #FFFFFB",
"BX c #EFEDE1",
/* pixels */
"&X@X5.7.V.d.V /.n.n.G.&.#.F.B. Xm.y.).m.N.0.M.|.q.S.4.n.n.y.j.E.U.^.6.G.k.x.!._.).7.q.7.&.-.r.&XR./.m.2.p.=.c.7.&.4.y.y.A.&.4.s.",
"E.N.S.s.9.1.t./.7.+.q.0.@.7.M.y.c.0.7.n.).s.4.r.9.h.y.5.).m.y.y.U.E.5._.F.x. XD.y.S.Z.&.S.j.y.'.u.n.D.I.9.=.q.9.y.8.#.S.c.&.&.+.",
"+Xb.b.%.4.N.N.N.y...9.D.h.n.Z.&.=.;.-.7.R.y.@.q.9.)./.y.y.D.q.4.w.y.u.G.e.j.D.=.:.$.;.9.D.q.M.S.q.5.9.oX_.t.m./.D.s. .0.&.d.@.,.",
"_.7.v.O.5.|.7.P.r.*.G.).`.m.F.&.x.o.8.r.R.n.;.c.L.7.f.9.4.`.q.8.N.q./.&.M.5.f.J.0.O.@.5./...m./.q.S.0.N.#Xm.i.N.N.7.0.Z.o.h.D.9.",
"m.W. X7.G.r.9.'.w.O.D.$Xm.5.S.S.n.%.m.@.q.7.&.x.M.;.r.1.O.m.G.4.S.q.D.=. X.Xy..X,.F.v.M.N.%.M.[.+.H.c.q.'.q.5..XJ.x.c.0.;.7./.j.",
"v.y.).y.8.5.N.@XE.S.B.:Xv.O.u.g./.+.G.y.7.7.M.n.y.+.R.B.J.).S.O.8.y.y.+.[.:X XR./..XM.v.Z.;.7.].C.M.(.j.m.9.@.#X8.+.).9.O.v.J.7.",
"k.0.y.h.&.K.N.(.(.y.).!.u./._.4.F.8.7.N.8.6..X_./.4./.*X Xm.q.x.7.h.D.y.m._._.P.B..X|.4.&.O.-.9.m.z.G.I.I.c.y.Q.c.q.).m.-.v.M.7.",
";.H.4.N.|.K.B.u.u.S.N.u.y.j._.<.G.c.0.C.+.Z.m.R.XX0.N.%X$X7.&.k.V.).|.~.x.y.n.q.v.^._.E.m.D.V.N.R.G.i.n U.m.e.!.C.v.c.W.).;.q.v.",
"8.m.N.V.-X~./.m.7.).).n.G.D.D.G.q.5.S.G.5.8.y.(.2.c n 3.a.m c c #.a.a.1.c b a.2.p.c a.a.Y.a.p.t.}.D.t.s.D./.5.m.m.4.*.)./.4.R.m.",
"'.c.;.4.u.G.U.S.7._./.7.G.5.S.V.c.y.S.r././.S.n X O o % : ; : : : o % % o % ; % : : o o % o X X N m.j.q.j.G.0.=.S./.%.9.].G..Xn.",
"V.9.o.;.5.D.y.j.S.7.D.q./.h./.m.+.<.m.R. XoX0.z % o O                                     O o o v M.5.5.u.=.X.%.)..XG.r./.N.z.n.",
"v.y.'.N.D.j.7.j.9.v.N.m.OX+XW.m.@.1.U.E.B._.%.c 2 O G 2X<X<X<X3X<X<X<X<X<X<X<X<X<X<X<X<X2XJ O ; V m.&.+.q.O. .O._.[.'.@XW.S.O.6.",
"A.c.[.W.y.D.).r. .XXN.G.u.c.n.D.]. X/.n.N.Q.A.p.q , 2XNXNXNXNXNXNXNXNXMXNXMXNXNXMXNXMXMXNX7X  ; v R.4.y.F.0.-.n.R.).R.U.m.m.x.&.",
"y.U.}.).e.7.m.j.r.j.y.D.n.6.8.n.M.m.y.).OXD.0.m q , 2XNXbXbXmXbXbXbXbXbXbXbXbXbXbXbXbXbXMX2X  % h E.m./.5.&.&.H.E.m.7.&.Y.i.x.0.",
"D.G.`.m.n.].q.U.t.d.j.7.x.Z.-.F.V.+.y.).n.y.y.N 2 2 2XNXbXlXjXkXbXnXcXiXiXzXnXnXhXiXhXbXNX6X  X B -Xn.7.Z.F.0.n.M.u.z.l.}.}.x.x.",
"y.=.7.6.<.D.=.m.y.v t.M.o.-.9.m.c.@.].n.5./.XXm 2 o <XNXMXkXfXhXnXMXzXeXqXlXnXnXiXqXuXbXNX2X  % M -X7.0.0.c.9.n.m.4.G.@X{.}.n.n.",
"E.G.+.D.5./.F.J.R.I.5._.,.+.D.R.5.+.Z.n.Z.-X^.m %   ,XNXbXkXfXhXbXMXBXuXeXlXnXnXgXqXiXbXNX6X  ; b XXR.y.<.+.F.D.1.@.D.@X!.n.=.x.",
"G./.w.Q.5.S.M.n.`./.z.T.y.0.Z.&.S.).;.q.7.N.).2.%   ,XNXbXhXtXjXnXMXvXfXiXxXnXnXgXeXiXbXNX6X  : z l.[.m.S.S.n.n.n.G.5.q.D.y.o.f.",
"8.m.[._.y.n.M.5.3.y.r.j.4.%.O...G.E.o.u.9.9.l.m %   >XNXnXgXqXiXnXMXBXfXgXzXMXnXiXeXiXbXMX6X  ; B v.D.y.y.H.5.H.n.|.S.;.N.R.8./.",
"7.y.R.).&.q.4.<.U.c.q.n.4.9.G.C.~.R...P.9.H.0.m %   ,XNXbXgXeXuXmXMXBXfXfXzXnXnXiXqXiXbXMX6X  ; V  X7.x.j.j.y.9.8.7./.z.B.XX0.q.",
"'.z.).F.+.+XF.q.n.l.G.N.XX6.J.-Xc.H. .y.h.F.&.z ,   ,XMXbXiXqXuXmXnXzXuXeXzXMXbXiXqXiXmXNX2X  ; z J.x...S.m. X9.n.4.h.x.&.H.o...",
"..x.%Xq.M.V.C.%XN.n./.y.9.+.9.n.O.Z.&.m.{.9.&.b %   3XNXnXkXtXgXnXNXvXuXfXzXMXMXhXtXhXnXNX4X  ; h *.S.d.o.l./.+.S.(.&.=.6.D.7.+.",
"-.O.].<.0.V.J.W.N.u./.0.O.c.9.7.q.s.0._. X9.6.b % O q K K F D G H K H D D H K J F D F H K C O o z $.5.=Xy.x.8.c.D._.=.b.M./.n.XX",
"&XO.y.7.S.].5.u.).y.y.&.0.;X7.c.c.n.&.OX|.0.=.b % % o                             O         % o z *.u.'.).z.8.G.q.9.q.OXn.e.S.m.",
"m.7.,.5.&XN.E.m.m.z.n.q.j.P.1.1.y.4.y.n.7.d.9.N o o & * < , % , < 1 2 < < - < < , o & < = , % o b c.@X/.7.m.n.Z.x...5._.m.q.n.u.",
"D.@Xx.F. XE.&XE.&X@XG.(.T.7 7 7 7 - M n.@.8 5 = & @ y Q R 6 o 3 [ [ [ [ R W W R 4 o 3 R Q p @ + V x.y.E.).S.+.0.A.O.-.'.u.n.&.O.",
"y.'.E.oXu.y.E.R.P.E.5.u.a.+ # + + + a.V.o.* $ + + O p ] _ 9 X 3 } { ] ] ` _ _ ) 6 X 3 / ] s @ # V K.=.M.n.7.0.0.q.q.-.9.N.B.M.b.",
"9.}.U./.r.#.5.(.&X+X=.N.g.& # 3 6 4 B 2.z = + 5 9 6 p R T r 6 r Q } } ) ( ( ) ( r 6 r / ` a @ + N b.%.x.n.e.d.O.7.9.XXy.m.%XN.n.",
"h.u.S.x.$.O.y.5.@Xn.&.).1.* + y ` ) e : > > @ e ) ` y o # T ) ) ( ) ) ( ( ( ( ) ) ) ( ( ` s @ + v S.o.O.5.`.<.&.y.N..X@X/.m.R.e.",
"y.-.H.7.-.5.oXM.n.m.+.7.m $ + p ` ` e X @ # @ e ) _ y @ > T ` ( ) ) ( ) ( ) ) ) ( ( ) ) ` s @ $ V ).u.0.4.Q.y.0.4.G.E.Q.E.].r.4.",
"m.x.y._.(.5.x.m.z.+Xj.,.8.g j k p p p p y < @ e ) _ y : * T ` ( ) ) ) ( ) ) ( ) ) ) ^ E Q d @ # V C.@X&Xy./.v.b.%.9.N.!.[.S.4.8.",
"y.)._.Q.m.;.&.y.oXB.N.E.m.q.v.h + @ T ` / 3 X e ) ` y @ # R ) ) ) ( ) ( ) ( ) ) ) ) / U Y w : # V B.i.[.m.|.v.*.-.9.XX@X&Xe.c.0.",
"F.m.}.m.M.0.$.k.(.R.M.%XR.@.v.g $ > T ` Q 3 @ 6 ( ` y o # Y ^ ~ ( ~ ^ ^ ^ ^ ^ ^ ~ ^ ~ Y ! y + $ h x.h.7.N.N.&.x q.m.G.e.[.Q.9.<.",
"y.D.R.D.7.6.X.=.n.q.y.E.R.*.M.j.v M 0 e e p d i ( ` y @ # 8XdXsXsXdXrX0X0XrXsXsXsXdX0X9 4 l c b 1.j.m.#X).n.o.4.&.x.N.0.n.@Xm.5.",
"y.9.G.c.S.D.o.8.n.F.h.x.[.u.=.$XL.+X8 X # U Y ! ( ` y @ * yXNXMXMXMXBXtXeXzXMXMXMXNXjX< . 8 ;.q.7.j.Q.&X(.y.y.(..XK.B.7.=.).m.y.",
"D.+.Z.0.y.m.<.5.'.j._.c. X!.6.2.1.f.0 3 4 U Y ! ( ` y o # tXMXbXbXnXzXuXtXlXnXbXnXMXjXq q k 2.2.5.0.m.E.R.5.n.(.oXl.J.4.4.R.P.t.",
"E.&.0.+.9.z.n.G. Xw.e.v.c.S.|.h * * Z Q / / / ( ( ` y + * tXMXbXnXnXnXbXbXbXnXnXnXnXnXzXbX1X* 3 z 0.y.N.%X`.0.q.s.X.G.n.G.n.M.m.",
"J.x.-.D.4.S.m..XN.N./.v.+.9.XXj $ # Z ] ( ( ( ( ( ` y o # yXMXbXnXnXnXnXMXnXnXnXnXnXnXnXNX5X  . z +X!.m.@X/.y.Z.+.O.u.[.c.%.0.C.",
"n.S.q.S.u.S.y.F.N.R._.l.8.9.m.j $ & Z _ ( ( ( ( ( ` y @ # yXMXbXnXnXmXzXzXmXnXnXnXnXbXlXcXqXH K k v B @.'.R.y.0.4.n.E._.4.+.&.`.",
"7.7.H.5.u.c.7.5.q.Q._.7.-.y.E.j # & T _ ( ^ ( ( ( ) p : * yXMXnXnXnXxXeXeXlXnXnXnXnXmXtXqXhXMXNXI   < x v.M.&.q.G.6.y.S.7.7.y./.",
"x.0...0.0.;.Z.5.4.1.y.5.O.G.C.h + + T ] ) ) ` ` ) ` y X O yXMXbXnXnXzXeXqXlXnXnXnXnXmXeXqXhXnXMXK . 1 2.:.*. .q..Xz.+.8.x.G.6.y.",
"J.q...v.-.#.n.G.&.j.9.&.@.q.J.n k v u t y t t t y r [ 7X3XxXMXnXnXnXmXlXlXmXnXnXnXnXbXlXlXcXnXnXP . = 2.;...9.S.J.v.H.7.n./.n.|.",
"#X/.O.v.7.0.b.=.n.G.q.G.S.&.x.n.D.z.8 + @ @ @ o ;   3XNXNXMXbXnXnXnXnXnXnXnXnXnXnXnXnXMXnXnXnXNXP . 5 2.f.f.'.D.-.K.@X5.q.D.u.OX",
"}.t.1.n.G.D.:.x.E.&.q./.).0.v.5.(.g.8 # * # * * > O ,XNXBXMXbXbXnXnXnXnXbXnXnXbXnXnXnXbXbXbXbXNXP . < 9.G.D.n.D.t./.P.q.8.w.t./.",
"n./.f.m.0.U.o.G.S.%.s.u.R.S.c.0.y.a.2.f.b 3.2.j > . | jXuXiXiXiXiXuXuXiXiXiXiXiXiXiXpX| { | { | y + < D.~.u.&.c._.F.9.0.7.U.g./.",
"M.m.F.0.O.`.4.4.m.m.3.0.+.G.q.-.s.t.G.C._. XC.b < . K yXeXpXpXeXuXpXpXuXuXpXuXeXeXeX0X) ^ ) ^ ' r X , 9.)._.7...n.*.=.O.S.Y.M D.",
"n..XN.;.O.2.y.8.D.u.#.-.x.e.y.G.7.S.7.h.9.S.N.z > . I kXuX8X4X4X4X4X4X4X4X4X4X4XtXhXwXW R W R W u 7 7 #. XN.y.n.y.....6.|.6.D.}.",
"q.&XG.@.Z./.D.q.5.x.*.;.Z.@X[.n.%.f.n.n.y.2._.b # . >XMXbXF . 5 * < < < < 5 # 5 yXMXiX5 * * * $ B c.q.OXR.y.s.(.n.8. .0.+XN.n.A.",
"7.m./.9.M.N.m.l.-.k.n.oX=.R.w.*.k.Z.S.4.S.4.J.M > . <XNXMXF . # + + $ + + # + < fXNXjX5 @ # # + v Z.9._.^.).#.y.G.j.5.q.u.'.5.d.",
"n.U.G.).J.q.3.8.b.-.r.[.)..X8.*.k.k.x.D.y.v v k o . G 2X1Xq + = l g g g l 7 # * I 2X,X# . @ * # v ;.8.R. Xe.4.q.y.t.r.y.y.#Xy.Z.",
"%XP.=.+XV.y.T.<.=.+.m.(.@X^.6.V.9. .S.7.r.5 + +           @ + 7 0.0.%.0.x.l + #           . # $ N =.s.XXM.6.G.).G.7.P.m.N.$XE.N.",
"!.N.y._.;.y.{.n.O.m.).m.u.).O.N.j.9.9.l.8.= # @           @ # = =.k.@.u.u.l + # O         O * + B G.s.m.n.x.e.y.G.*.C.'.i.S.v.m.",
"_.4.5.{.+.G.N.i.y.-X).7.c.n.9.9./.&XM.l.2.= # * X @ @ @ @ @ # = f.&.O.n.n.l + < @ @ o @ @ @ * + v i.4.(.%XR.7.;.x.b.M.'.D.&.+.R.",
"u.y.m.R.e.H.m.P.).E.W.n.l.z.].R.M.OXC.N.t.= + # # # # # # # # 5 y.4.;.&.$.g + + + # # # # # # $ v t.1.D.(.r.&.F.M.&.+.z.M.).M.).",
"q.n.XX).).c.u.y.0.&.H.=.&.XX!.W.$X|.R.-XR.7 # * * < = * = * & 7 f.-.H.%.*.j # = * * = * * & * * b G.y.8.,.q.;.&.9.r.4.%.r.{.-Xz.",
"h.n.u.(.m.q.5.m.q.#.%.+.n.@X X3.{.E.B.@Xc.x 2.g.9.r.3.#.&.8.t.g.G.+.s.S.0.'.r.2.j.3.c 2.j.5.2.f.+.4.&.+.=.v.v.c.r.`./.+.+.E..X7.",
"m._.R.Q.E./.S.4.|.P.2.,.n.y.0.g.T.7.f.].=.0.G.n.c.y.4.0.%.0.y.V.n.&.D._.5. X7.-.0.m.4.0.#XG.*.0.8. .1.h.#.8.7.n.Q.m.A A z.7.W.y.",
"n.N.R.`.)._.M.#.).&XD.9.S.4.0.XXt.O.S.f...H.q.0.y.U.u.y.,.9.8.Z.D.q.D.Q.q.'.5.s.+. XC.n.(.r.M.k.8.d.&.a.8.@.4.).N.R.B Y.~.).n.).",
"q.w./.y.m.;XE.4.r.N.c.+.s.q.G.O.H.7.y.,.7.).8.0.j.u.{.U.y.h.y.y.[.q.q.D.x.v.S.q.4.n.F./.R.u.*Xn.'.XXl.}.0.0.G.$Xc.Q.D.n.|.S.F.y.",
"7.y.S.6.q._.Q.4.S.h.O.O.0.+.j.8.n.K.+.q.).m.8.4.F.6.'.D.j.M g.n.e.).).XXz.).q.,.'.0.&.u.).N.(./.n./.8.K.M.6.M.B.q.&XS.w.R.6.S.y.",
"V.).6.0.8.5.r.u. Xn.o.H.G.G.D.r.N.6. .0.q.0.`.q.=.x.7.y./.M t.H.V.e.m.|.@X|.;.&.oXA.%.1.D.|.n.G.n.y.D.4.).4.q.5.m.*XD.y.m.5.y.G.",
"M. XG.o.q.S.4./.m.5.q.Z.z..Xr.M I.S. .&.0.#.5.D.&.G.;.&.oXq.0.q._.y.,.e._.R.-.%.q.O.-.0.y.).M.m.F.l.m.N.'.r.+.5.R.m.S.=.XXm.6.K.",
"m.m. X0.6.G.n._.f.q.n.=.O./.c.2.g.M.9./.y.0.<.).G.S.9.%.G.y.=.5.E. Xq.y.@.j.-.-.4.7.G.n.M.y.5.).G.7.9. XR.D.F.Z.'.n.@.>.n.q.%.k.",
"_.e.N.|.q.5.9.).4.). X-...5.F.J.x.M.[.).F.@.D. Xm.N.G.0.,./.D._.^.oXx.n.o.9.q.y.).v.G.7.9.8.4./.u.r.9.j.m.c.V.b.4.J.#.;.0.9.-.<."
};
