/* XPM */
static char *_ca8e89119b0401dfaa8d5de0fe04c2808qifHJesm6NZs2v[] = {
/* columns rows colors chars-per-pixel */
"48 48 193 2 ",
"   c #FFFFFF",
".  c #080200",
"X  c #100601",
"o  c #170808",
"O  c #17120C",
"+  c #150B13",
"@  c #221812",
"#  c #351D19",
"$  c #1F1A3E",
"%  c #261728",
"&  c #261C26",
"*  c #351E23",
"=  c #290E39",
"-  c #351D3C",
";  c #2E2A29",
":  c #332820",
">  c #3C2824",
",  c #342A2B",
"<  c #382628",
"1  c #38312D",
"2  c #2C2334",
"3  c #26213B",
"4  c #3A2B32",
"5  c #36263C",
"6  c #3B353B",
"7  c #482E2E",
"8  c #51392B",
"9  c #4C2F32",
"0  c #553934",
"q  c #533633",
"w  c #331641",
"e  c #361A45",
"r  c #3C1E4C",
"t  c #2E2B4E",
"y  c #222243",
"u  c #3D224D",
"i  c #382745",
"p  c #3F2251",
"a  c #393750",
"s  c #403348",
"d  c #413F4F",
"f  c #423E44",
"g  c #533D41",
"h  c #452854",
"j  c #452758",
"k  c #483956",
"l  c #482860",
"z  c #4E3F67",
"x  c #53356B",
"c  c #384157",
"v  c #424047",
"b  c #49424C",
"n  c #5D4B44",
"m  c #5D4545",
"M  c #40405E",
"N  c #4E4A5B",
"B  c #4D4258",
"V  c #514959",
"C  c #51505B",
"Z  c #614644",
"A  c #61524B",
"S  c #6E5950",
"D  c #665158",
"F  c #675F5C",
"G  c #7C5E5C",
"H  c #7E615D",
"J  c #75635F",
"K  c #5A4B6F",
"L  c #534763",
"P  c #55536A",
"I  c #5A5864",
"U  c #5E4E79",
"Y  c #594E72",
"T  c #545C75",
"R  c #5E507B",
"E  c #62546B",
"W  c #655C6D",
"Q  c #655D6A",
"!  c #745D67",
"~  c #604F76",
"^  c #61467D",
"/  c #604B7E",
"(  c #675B7C",
")  c #6C636F",
"_  c #7F6562",
"`  c #666273",
"'  c #6F6876",
"]  c #6B6579",
"[  c #6D6B7C",
"{  c #6A6376",
"}  c #726D7D",
"|  c #7A6B76",
" . c #7D7676",
".. c #815F5F",
"X. c #80615E",
"o. c #826263",
"O. c #85656A",
"+. c #8E7375",
"@. c #2D2A8D",
"#. c #5F4884",
"$. c #5E5899",
"%. c #624784",
"&. c #64468A",
"*. c #644885",
"=. c #695A87",
"-. c #6A6884",
";. c #716384",
":. c #756D84",
">. c #73658D",
",. c #746C8D",
"<. c #7B6A8D",
"1. c #7A6D87",
"2. c #7C7484",
"3. c #7B758D",
"4. c #7D788B",
"5. c #75738C",
"6. c #756595",
"7. c #766A94",
"8. c #796B94",
"9. c #766599",
"0. c #78679A",
"q. c #776898",
"w. c #7A6A9A",
"e. c #796593",
"r. c #767595",
"t. c #797595",
"y. c #777890",
"u. c #777698",
"i. c #7B759B",
"p. c #7D7B9A",
"a. c #7C7C97",
"s. c #7B67A0",
"d. c #8C7E8C",
"f. c #827A88",
"g. c #807694",
"h. c #837D93",
"j. c #807698",
"k. c #837D9E",
"l. c #8C7F94",
"z. c #897EA5",
"x. c #858192",
"c. c #8E8796",
"v. c #84829D",
"b. c #8C869D",
"n. c #8B899A",
"m. c #91879A",
"M. c #989297",
"N. c #A79499",
"B. c #8382A0",
"V. c #8D8AA4",
"C. c #8A88A7",
"Z. c #9088AD",
"A. c #9492A9",
"S. c #9B94AB",
"D. c #9D9BAC",
"F. c #9794B2",
"G. c #9B94B3",
"H. c #9B9BB5",
"J. c #9F9DB9",
"K. c #9C97B8",
"L. c #A09EA7",
"P. c #A49CAC",
"I. c #A89FA9",
"U. c #B19DA7",
"Y. c #A49EB5",
"T. c #A99EB4",
"R. c #A59EBC",
"E. c #A7A2AE",
"W. c #B9A5AD",
"Q. c #BBAAAE",
"!. c #B5ADAC",
"~. c #A4A2B6",
"^. c #ACA2B5",
"/. c #A4A4BA",
"(. c #A8A4BA",
"). c #A8A4B8",
"_. c #A8A2BD",
"`. c #A8A3BB",
"'. c #AEAEBE",
"]. c #BEAFB3",
"[. c #BBAEB3",
"{. c #B1ADBE",
"}. c #B0A4BC",
"|. c #AEB0BE",
" X c #BEB0B4",
".X c #B5B0BE",
"XX c #C0AFB4",
"oX c #A6A3C0",
"OX c #ABA3C2",
"+X c #AFABC2",
"@X c #B2AEC1",
"#X c #B1A7C1",
"$X c #B4B1C1",
/* pixels */
"                                                              _.Y.K.                            ",
"                                                      I ).(./.(.).).)./.S.                      ",
"                                                  c.).).(.(._.(.~./././.)./.                    ",
"                                              ` b.(.(.)././././././.).~.).Y./.P.                ",
"                                            A.~.).).(./.(.(.(.(./.~.)./.~./././.N               ",
"                                          ] ).)./.(.(.(.(.(.(././.).~./.~.~.R.J.~.~.            ",
"                                          v.] (.(.)././././././.~./././.~.~.~.~.~.P `           ",
"                                        3.~.).(././.1 1 ; 1 6 b ~.).~.Y.~./.~.~././.).          ",
"                                        :.).).(./.).| . _ X.H Z , 6 ~.~.~.~./.~.~.~.).          ",
"                                        ~./.(.(.|.)./.@ o.S # n H < v ~.~.~././.~.~.D.5.        ",
"                                      -.c./.(.(.~./.(.1 J q M.$ # 8 < D.~.~.~./././.C E.        ",
"                                      V.'./.(._.~.(.(.(.<  .W.o.I.H H < /./.~.).~./.L ~.        ",
"                                      v././.oXF.R./.).(.(.V < F !.N._ 0 ) ~.(./././.x.~.        ",
"                                      a.J.C.p.p.u.K.(._._._.Y.} , n H _ ; ~.~.~./.~.D.n.        ",
"                                      a.p.B.p.u.v.).~.~.).Y.R./.(.j., A , E./.).~.~.y.c         ",
"                                      T B.p.p./.).~.M.G _ o.o.G | Y./. .; I /.~.(.~.u.          ",
"                                        2 a.p.^.} :.t.X.o.O.O.O.X...d.R.m.@ ~.~./.N y.          ",
"                                        3.6 + c y.u.K.o.XXXX X XQ.o...> R.f.~.~./.5.2.          ",
"                                      C h.4 u g.i.oX(.^.XX[. X XQ.Q.m H g `.).Y.).y.            ",
"                                      x.E.h e u ~._.oX_.x.XXXX[.].! +...G ' R.).5.              ",
"                          < f       x.`.) %.x - `.(._.(.).W XX].[.W.O...o P /.D.                ",
"              .X$X$X.X$X$X$X@X{.$XZ.{.} / &.&.h r T._.(.`.`.W [.].[.o.o f.  D.                  ",
"          {.$X$X$X$X$X$X$X$X$X$X$XY.#X* %.*.p *.u p W `./.~.~.T.].U.0 o I                       ",
"        $X$X$X$X$X$X$X$X$X$X@X@X$X$X@X@XD * h r ^ h e e `.~.R.).R.T.R.(.a                       ",
"      .X$X$X$X$X$X$X$X$X$X$X@X$X$X$X@X@X4.! 9 u &.%.e w r Y.~.~./.k././.k                       ",
"    $X.X$X$X$X$X$X$X$X$X$X@X@X$X$X$X$X$X$X(.7 > }.z &.j p w 5 V.p.u.i.-.                        ",
"  @X$X$X$X$X$X$X$X@X$X$X@X@X$X$X$X$X@X@X@Xm.^.# I.R.`.E U l = 3   T -.                          ",
"  $X.X.X$X$X$X$X$X$X$X$X$X@X+X$X@XoX#Xw.@X{.(.~.| T.~.~.R.<.- t                                 ",
").$X$X$X$X$X$X$X$X.X$X@X@X@X$X@X@X@Xs.s.@X@XoX(._._./._.R.R.u.t.                                ",
".X$X$X$X$X$X$X$X$X$X+X$X@X.X+X@X@X@Xw.9.z.+X~.(.(./.(././.R.R.i.u.y.                            ",
".X.X$X$X$X$X$X$X+X$X$X@X@X|..X$X@X@X7.>.0.w./.oX(.(.R._./././.~.u.-.u.6                         ",
"$X$X$X$X$X$X$X$X$X@X@X$X'.@X|.+X@XS.w.>.9.9.).oX/././.oX/./.~.~./.u.5.a.y.@                     ",
"$X$X$X$X@X@X$X@X$X$X$X'.@X@X'.'.@X@Xi h 9.q././././././././././././././.H.y.X x.v ;             ",
"$X.X$X$X@X$X@X$X@X@X@X.X|.{.{.@X'.'.U ( 9.0.(.(.oX/././././././.H./.H.[ /.H.y. .'.|.'.          ",
"@X$X$X$X.X@X@X#X{.'.{.'.'.@X'.{.'.'.#.9.6.k /.(.oX/.oX/././././././././.|./.C.; '.|.|.'.        ",
"$X@X@X@X@X{.@X{.@X|.'.@X'.{.'.'.'.+X0.9.9.. _.(./././././././.J./.~././.T /./.y.+ |.|.|.{.      ",
"+X+Xj.R.@X#X@X{.@X'.|.'.'.OX8.6.6.9.U 9.3 O /././././././././././././.H././././.j.L.|.{.'.'.    ",
"t.w.0.0.0.0.j._.{.|.'.'.'.0.9.6.9.6.6.6.r.` /./.oX/././././././.~.~./././.L./././.] V.|.'.'.y.  ",
"y 0.0.w.{.{.}.{.'.'.'.[ z.9.6.6.9.9.q.9.& (././././.J././././././././././.D./././.t.>.7.'.'.{.  ",
">.l.@X#Xk.w.8.w.w._.$X<.(.>.6.9.6.9.>.Y L oX/././././././././././././././././././.(.-.0.#X'.'.@.",
"+X$X+X.X.X+X$X@X{.;.R.#X;.{.( 6.9.3 >.9.v./././././././././././././././././.D.J././.u.9./.'.'.& ",
"$X+X$X{.'.$X|.@X{.{.B 8.@X>.>.6.9.6.>.R /././././././.~./././.~././././././.:./.J./.i.N w.+X+X$.",
"@X|.|.{.'.@X{.'.{.'.S.^.] _.z 0.7.T -.H./.oX/./././.~././././.~./././././././.~.~./.a.r.9.+X+X3 ",
".X+X@X{.'.|.{.|.{.'.q.9.e.U 9.6.7.9.T /././././.~.~.~././././././././././././.~.J./.a.u.>.+X'.t ",
"+X|.{.{.{.$X|.'.{.+X9.q.<.6.>.6.y.-./././.|././.~./././././././././././././.oX~./.J.u.u.k oX+Xe.",
"+X.X'.@X|.|.'.{..Xq.q.e.9.1.9.<.& /./././././.~././././././././././././././.J.} /.R.r.u.y.z.F.9.",
"@X'.{..X+X|.|.+X+Xw.9.9.0.K 0.s H././.|././.~./././././.(.(.~.V.H./././././.p.C H.u.u.u.7.9.9.9.",
"'.'..X+X.X{.{..X8.w.0.w.w.w.e.E /.H.|./././.|./././././._././.B.A.~././.(.J.a.V.u.u.u.u.r.>.6.9."
};
