/* XPM */
static char *a8b65406c7f44522da46a820571cb5eea0EVwVW5ZQHprUmz[] = {
/* columns rows colors chars-per-pixel */
"64 64 235 2 ",
"   c #4F1F15",
".  c #531F16",
"X  c #4E2615",
"o  c #4D2C15",
"O  c #532617",
"+  c #532D16",
"@  c #592C17",
"#  c #562C18",
"$  c #5B2C19",
"%  c #5D2619",
"&  c #4D3314",
"*  c #443C11",
"=  c #4C3C14",
"-  c #463512",
";  c #553117",
":  c #593417",
">  c #513B16",
",  c #563118",
"<  c #5B3419",
"1  c #5D381A",
"2  c #43390F",
"3  c #622E1A",
"4  c #682C1C",
"5  c #63331B",
"6  c #6B351D",
"7  c #66391B",
"8  c #6C3D1D",
"9  c #713E1E",
"0  c #583E2D",
"q  c #643C21",
"w  c #6C3F21",
"e  c #743C20",
"r  c #793C21",
"t  c #3D4D0F",
"y  c #2D570B",
"u  c #3C540E",
"i  c #3B5B0D",
"p  c #35580C",
"a  c #3E4310",
"s  c #3C5211",
"d  c #3D5C12",
"f  c #187805",
"g  c #1D6E06",
"h  c #3A630D",
"j  c #376A0B",
"k  c #2D7D0D",
"l  c #277808",
"z  c #327007",
"x  c #337D0B",
"c  c #36780E",
"v  c #3C6310",
"b  c #3C6A12",
"n  c #3F7712",
"m  c #3B7811",
"M  c #2D6F07",
"N  c #41560F",
"B  c #444313",
"V  c #4C4215",
"C  c #434B12",
"Z  c #4B4A14",
"A  c #4F4B19",
"S  c #4C4318",
"D  c #514117",
"F  c #435312",
"G  c #4A5414",
"H  c #455D12",
"J  c #4A5D14",
"K  c #44490F",
"L  c #73411F",
"P  c #79431E",
"I  c #406E0F",
"U  c #42760F",
"Y  c #446211",
"T  c #496815",
"R  c #546419",
"E  c #437412",
"W  c #4E7516",
"Q  c #457C14",
"!  c #4A7C17",
"~  c #5D701D",
"^  c #584539",
"/  c #6C4123",
"(  c #64432D",
")  c #764320",
"_  c #794521",
"`  c #7C4822",
"'  c #654733",
"]  c #584C44",
"[  c #0A8401",
"{  c #0C8A02",
"}  c #048902",
"|  c #138603",
" . c #1B8503",
".. c #158C04",
"X. c #1B8D04",
"o. c #148E09",
"O. c #1D8D09",
"+. c #0D9102",
"@. c #089C00",
"#. c #159304",
"$. c #1C9305",
"%. c #129B05",
"&. c #1D9B05",
"*. c #159508",
"=. c #1C940A",
"-. c #1C9B0A",
";. c #159E09",
":. c #1F9E10",
">. c #238406",
",. c #248E04",
"<. c #2B8E06",
"1. c #26850A",
"2. c #2D850A",
"3. c #238D09",
"4. c #2B8C0B",
"5. c #2F8706",
"6. c #348309",
"7. c #3D840C",
"8. c #348C0D",
"9. c #3D8D0E",
"0. c #239305",
"q. c #2A9406",
"w. c #239B06",
"e. c #2B9C06",
"r. c #24940A",
"t. c #2B950B",
"y. c #249B0A",
"u. c #2C9C0B",
"i. c #329506",
"p. c #349B06",
"a. c #33940B",
"s. c #3A930D",
"d. c #339C0C",
"f. c #3B9C0C",
"g. c #399807",
"h. c #298C10",
"j. c #3D8413",
"k. c #398710",
"l. c #2A9512",
"z. c #2C9D11",
"x. c #249710",
"c. c #349411",
"v. c #3C9513",
"b. c #339C11",
"n. c #3B9D12",
"m. c #1DA406",
"M. c #1DA40A",
"N. c #18A906",
"B. c #24A406",
"V. c #2CA205",
"C. c #24A40B",
"Z. c #2CA30B",
"A. c #24AB0D",
"S. c #2CAA0C",
"D. c #2AAC07",
"F. c #34A207",
"G. c #33A30C",
"H. c #3BA30D",
"J. c #34AB0D",
"K. c #3BAB0D",
"L. c #3BA307",
"P. c #2DB10F",
"I. c #35B10C",
"U. c #3BB00D",
"Y. c #2CA311",
"T. c #2CAC11",
"R. c #27A512",
"E. c #34A412",
"W. c #3CA412",
"Q. c #34AB12",
"!. c #3CAB12",
"~. c #3CAE19",
"^. c #3BA318",
"/. c #2FB210",
"(. c #34B111",
"). c #3CB313",
"_. c #3DB813",
"`. c #3AB618",
"'. c #408A0D",
"]. c #43800F",
"[. c #41940D",
"{. c #409D0E",
"}. c #4C900E",
"|. c #418411",
" X c #438C12",
".X c #4B8715",
"XX c #439413",
"oX c #439C13",
"OX c #4B9815",
"+X c #529718",
"@X c #518315",
"#X c #43A30D",
"$X c #49A30F",
"%X c #43AB0E",
"&X c #4AAB0D",
"*X c #42B20E",
"=X c #4CB20E",
"-X c #51B50F",
";X c #52B90F",
":X c #43A413",
">X c #4BA513",
",X c #43AC13",
"<X c #4BAC14",
"1X c #43AB18",
"2X c #4BAD1A",
"3X c #4AA71A",
"4X c #52A413",
"5X c #52AC15",
"6X c #52A31B",
"7X c #53AD19",
"8X c #5BA112",
"9X c #44B313",
"0X c #4CB314",
"qX c #45BB15",
"wX c #4CBA14",
"eX c #45B21A",
"rX c #4BB419",
"tX c #4CBA19",
"yX c #42BC19",
"uX c #52B314",
"iX c #53BB16",
"pX c #54B61A",
"aX c #53BB1B",
"sX c #5DBC1B",
"dX c #5AB417",
"fX c #64BD1D",
"gX c #56A620",
"hX c #37C314",
"jX c #52C119",
"kX c #5BC51C",
"lX c #52C010",
"zX c #4BC119",
"xX c #63C61C",
"cX c #5DC321",
"vX c #67C721",
/* pixels */
"pXuX0.e.(.l.M :XG.E.!.$. .Q.F.0XH.d.,XH.H.-.J.,Xu.E.0.F.G.d.n.%XOXwXw.K.C.C.=X<X<Xy.e.y.$.r.a.uX,X!.f.1.h.$.S.y.0.0.d.d.T.$.r.u.",
"%X%XE.u.t.<.s.:Xq.O.Z.y.O.e.G.G.Z.y.u.J.,Xu.0.a.u.b.a.q.!.H.d.p.oX#Xr.<XQ.C.0XE.u.E.Z.0.E.E.f.<X{.d.W..Xt.-.d.q.u.r. .Q.y.=.0.X.",
"yXB.P.#.0.!.K.K.d.{ r.W.b.G.Y.$.#.-.r.e.%Xd.O.u.0.,X3Xu.G.W.d.0.d.f.f.%Xp.n.:X$.;.+.=.u.oXu.J.E.d.0.d.rX>Xd.H.>XW.z.[ r.=.r.O.O.",
"<Xe.A...0.9Xp.[.i.%.1X,X1XH.Q.$.Z.{ r.t.>Xd.-.S.J.u.b.t.r.:Xu.r.G.u.!.$.J.q.b._.y...O.t.W.{ K.:Xy.G.y.K.pXH.p.%XK.e.r.Q...b.:Xt.",
"L.<X0Xu.W.i.u.2Xi...W.jXK.q.W.G.G.#.G.O.u.w.$.Z.J.&.a.3...H.W.$.E.F.W.$.0X0XG.0X,.Q.Z.J.J.#.J.5X$.eXZ.u.2Xu.0.wXqX-.Z.y.-.u.,Xd.",
"Q.p.,Xd.r.u.K.uX#XE.L.xXZ...n.v.:XO.%Xd.u.e.J.p.d.O.W.L.9X,XH...=.u.d.X.<XvX0X#X:XtXJ.S.E.&.e.>XJ.G.4Xb.n.r.O.7Xr.X.,Xu...Z.).y.",
"M.y.d.E.X.J.U.$X<Xd.,X0XF.:X,X0.!.r.r.K.=.e.qX0X:Xr.:XfX9XH.u.R.u.d.^.f.W.>X<X#XF.wX*X0.$.X.-.l.K.V.H.}.}.S.u.&XV.u.,XH.0.A.K.e.",
"*.~.0.K.9X_.F.n.f.E.K.f.d.oX<X3.Q.J.y.U.X.Z.H.#X,Xw.W.dXpXq.#.m.J.,X!.U.u.d.d.q.Z.=X<X:Xd.G.J.F.#X!.f.k OXH.d.&XU.T.Z.&X1X-.e.G.",
"u.H.J.(.kX*X:XG.e.,X,XZ.!.W.H.!.u.t.E.K.q.r.d.5Xe.y.F.H.<Xu.=.z.B.,X*XK.$.r.f.K.qX$.H.>XdX5XQ.wXdX:Xi.z.W.:Xr.H.H.r.%.1X:Xr.#XH.",
"3XZ.-.0.H.:Xn.W.u.<X:Xu.!.u.!.J.u.d.G.c.:X<Xp.1XX...E.:X7Xi.C.W.r.0XH.E.u.W.f.tXiX-.e.#X>X<Xu.G.0Xd.n.u.f.!.y.w.!.H.#.l.>XQ.wXF.",
"I.t. .-.t.n.a.W.d.e.H.a.:XW.:XG.O.,.H.H.9XtXr.t.d.w.1XH.>Xd.y.0X$X>XoXG.9XH.pXn.L.C.u.d.d.p.W.$.e.f.t.u.f.$.} #.:X0X!.a.>XJ.D.d.",
"A.d.2XK.G.n.e.:Xu.T.K.H.tX9X&XH.O.<.oX,XF.<X..%.9XG.u.E.G.w.3.Z.!.{.0XK.0XJ.0X .E.N.e.<XW.u.Z.{ a.W...$.u.$.[ ..<X5X0XuX#X!...w.",
"E.u.uX&Xd.:X1Xt.[ eXK.,Xp.Z.G.^.!.rX:XH.H.{.Z.P.=.t.O.$.u.y.X.$.t.t.H.%X#Xp.1X..=.-.&.u.,X&...o.f.f.t.d.Q.y.=.d.#X&X#X:X#XH.y.$.",
"d.:X4X,Xp.e.H.f.c.f.d.E.E.w.r.G.!.F.d.,XzX!.q.=.r.%XZ...G.G.r.G.H.d.E.q.:Xd.u.....| Z.e.E.t.oXt.t.f.H.:Xr.$.$.).%XH.y.=.oXf.M.y.",
"W.!.,XW.d.1Xu.oXs.l.n.u.B.z.r.J.(.X.q.,XF.n.i.r.f.iXS.X.(.J.Y.C.wXtX-.[ n.z.r.=.b.q.u.E.d.G.n.'.uX0XJ.y.E.Q.w.J.J.f.B.w.6X8XV.Z.",
"d.&.u.w.,.E.m.K.S.M a.I.#.-.u.Q.G.O.1XH.e.:X<XG.,X[.5.3.v.s.s.4.i.OXf 3.u.#.*.X.pX!.X.y.Z.).&.3XxXiXu.y.y.u.l.G.L.r.!.uXuX4XE.Z.",
"%XW.O.#Xq.W.E H Y Z u Y p p H T q.O.Z.Y.Y.kX=XJ.V.= o o o o o o o o X R S.r.d.q.#X!.Z.u.[ #.H > = V = * * 2 V 8.t.O.W.uX9XG.&.Z.",
"K.:Xq.$Xt.f.> 4 6 6 6 6 6 e % & b.K.r.u.r.%XK.J.H.= 5 6 7 7 7 7 7 7 O R u.t.d.:X,X*XZ.>Xr.} C 4 8 6 6 6 8 7 # 6.H.E.q.u.:Xp.| b.",
"w.H.uX0XZ.G.S e ` _ ` _ ) ` 5 B ).%X..H.t.b.&.Z.,XA 8 ` ` ` ) ) ` _ O h 9X,X,XK.wXqXu.oX!.B.F 9 P P P P ` P , v.I.9XQ.w.K.&Xr.^.",
"4.8.[.OX>.6.- w 8 8 9 8 w 9 $ B {.[.f 9.4.v.>.c.s.= 5 e L 8 8 8 L 8 + p oX6Xv.d.a.5.9.9.f.oXC 5 L 8 / L / 6 o m 4.5.v.4.i.OX>.a.",
"T + 1 1 : : < < < < < 5 < < < < 1 : : : 1 1 : : < < < < < < < < < < < < : : : : < < < 1 : : < < 1 < : : < 1 : : < < : : : 1 , & ",
"y 5 _ _ L ) ) ) / ) L L L L L L ) ) ) ) e ) ) ) ) ) ` ) _ _ P ` _ ) ` ) _ ) _ _ ) ) _ _ _ ) _ _ _ _ ) P ) ` ` _ ) ` ` _ _ _ 8 o ",
"d 3 ) ) e ) ) 8 6 7 1 8 L L L L w L 9 L ) 9 ) ) 9 ) ) e 9 9 ( 7 8 9 9 8 L L L ) ) 9 ) 8 L L 8 9 L 8 / / 9 8 8 8 8 8 8 L L ) 8 & ",
"~ $ ` ) ) _ ) ) ) ' ^ 9 ` _ P P _ _ _ _ _ _ ) ) ` ) _ ) _ 9 ] 0 P ) ) ) ) ) ) ) ) ) ) ) L ) L L L L ' ^ 6 9 8 7 6 8 ) ) L _ 8 ; ",
"Y 3 ` ) _ P ) ) _ w q L L L L L L L L L L / L L L L L L 9 ) 7 8 L ) ) ) ) ) ) ) P ) ) ) ) _ ) _ ) ) L q _ ) _ _ ) ` ) ) ) _ 8 & ",
"i 3 ) e 9 L ) L ) ) L ) L L L L L L L L ) L L L L L L L ) 9 ) _ L _ _ _ ) ` ` _ _ ` ` ) _ ` ) L L L L L ) ) _ ) _ ) _ _ _ ` e o ",
"h & ; & & & + + + + + + ; + ; @ # @ # # @ @ # $ $ < : , < < < < < < 5 3 5 5 3 5 5 5 5 7 6 7 5 7 7 7 6 7 7 8 6 8 8 6 8 8 8 8 7 & ",
"l.+X XoX8.l = w 8 8 8 8 8 8 O J c Q Q c j I @X@Xb B # 7 < < < , < : o C t C G C a a B V * * & o o o o o + o o & & & & o o o o + ",
"b.p.G.A.#...= r ) L ` L ) ) + ! J.9X).I.zX*XlX9XV.p 6 ` ) ` ) ) ` 8 o 2.y.J._.qX9XG.Q.f.r.C.z 5 ` 8 ) L L 8 o k s.{.5XOXOX'. Xm ",
"d.r.~.y.=.<.D 9 L L ) L ) P O n <.v.r.f.pX*X>Xq.yXp 5 _ e ) ) 8 ` 6 & 8.r.u.Y.e.<XH.).#X(._. X5 _ L ) L L ) + 4.w.Q.U.$X,X!.p.w.",
"n.B.d.>X>X<.= e / L L L L L # k a.l u.>X>Xf.>XX.(.y 5 ) ) _ ) 8 _ 6 & a.H.!.$.| b.:XV.K.D.N.j.1 _ 9 ) L ) L + t.*.t.!.=X5XE.0.r.",
"d.,X<X>XL.=.= e L L ) L L / + g Q.R.r.>X>Xt.oXz.u.p 3 ) e ) ) L ` 7 > 2X#X#X3.E.d.f.X.E.C.m.6.< _ 8 ) L e ) o O.-.q.eXuXdXp.V.y.",
"Q.K.0XH.J.y.* r ) ) ` P ) ) # f Z.(.V.u.Z.H.,XB.J.b $ ) ) _ L L ` 6 * G.%X#Xf.,XK.G.$.d.y.V.x : _ e ) L ) L o f l.f.!.i.5X#Xt.,.",
"Y N H H v p & 5 < < 7 5 7 5 o I c m x k |.].6.2.c.v $ L 6 ) 8 8 ) 5 - 2.f.n.oXf.F.d.c.7X&Xu.1.: ` 9 ) ) P L & 2.m.S.J.S.H.iXK.t.",
"+ O @ 5 3 $ < < < , < , , , < @ $ # @ < + @ + : # ; + + ; ; ; + ; o ; & ; > & = = & & V > * * + , ; , ; ; ; o A G F F F s J H 7.",
"& X 7 ` _ ` _ _ _ _ _ _ _ _ _ _ ) _ ) ) ) P L L L ) ) ) ) ) L e L ) L ) 9 9 e 9 e 9 9 L 9 9 9 9 8 L 8 8 8 8 8 6 6 6 6 6 6 %   E ",
"; X 7 P ) ) ) ) ) 9 8 9 8 9 8 8 8 9 8 9 / 7 7 7 7 9 L L ) ) ( ) ` ) ) P _ _ _ _ ) ` ) ` ) L L 8 8 8 7 9 9 L L L L ) P ) _ 1 o Q ",
"& o 7 ` ) ) ) ) L ' ( 9 ) ) _ P ) _ ) ) ) ) P P _ L _ L ) w ] q ` ) ) P ) ) ) ) ) ) ) ) ) ) P L 8 8 ( ^ 9 L ) ) ) ) ) ) _ < X Q ",
"& o 7 ) ) ) ) ) P ( 0 L _ _ ) L ) ) ) ) ) ) ) L ) L L ) ) ) 7 ) P L L L ) ) ) ) ) ) ) ) ) ) ) _ _ P ( ( L _ _ _ ) ) ) ) _ < X @X",
"& o 7 ` ) ` _ _ _ P P ) _ _ _ _ ` ) _ ) L L L L L L L L L 8 ) 9 L L / L L L ) L L ) ) ) ) ` _ _ ) _ L P P P P ) _ ) ) P P < X ! ",
"o O @ 5 6 5 7 7 1 5 7 < 7 < 5 5 5 < 3 $ 3 3 3 $ $ 3 < < < < < < : < < $ $ 3 $ $ $ $ $ $ @ $ $ , ; ; + ; + + ; # ; + O # # + X n ",
"Z V * Z B 2 o + + + ; + , + & C C C G G F s F G i C + < < < < < 1 + = T i d v h h I Q E I j Q = 7 7 6 6 7 7 o E 9.8.+Xx k.j.j.,X",
"0X>X..S.e.r.V e ) ) _ L _ 6 C Z.n.e.9XS.N.C.e.d.).9., P e _ _ _ P $ N J.J.r.C.w.u.iXhX@.qX(.I.F r P ` ) _ L , l.M._.rXy.Z.!.d.iX",
"6X9.3.G.Q.E.V e L L _ ) ) 5 t e.>X9.s.J.#.W.G.y.H.|.; L L _ ) ) P @ Y 9Xd.G.=.1X{.3X=.*.Y.E.U.F e ) ) L L L ;  Xs.:Xf.u.r.a.g.:X",
"G.:Xn.E.r.XX= e L L ) L ) 5 s w.d.j.s._.r.L.d.n.!.k < L L _ ) L ` @ h 9Xp.W.u.G.i.f.u.J.X.r.J.F e ) ) L L L + a.9XQ.q.u.u.oXXX1X",
"J.H.E.y.$.:X= e _ L _ P _ 5 s &.u.a.G.K.<X,XH.t.r.v.; _ _ _ ` P ` # W J.r.u.).G.e.*XQ.r.r.Y.G.s e _ _ _ ` L & f J.#.-.#.J. Xx W.",
"G.0XJ.w...1.> 3 5 5 3 5 7 O H `.u.E.u.E.t.W.E.$.C.a.+ 3 5 5 5 5 5 O W J.3.E.<Xr.d.eX+.y.Y.o.b.R % 5 5 $ 5 $ # 8.u.{ { &.qXw.b.4X",
"d.iX!.O.Z.:XA * * B * V * & W J...b.G.Z.b.t.:Xq.Q.n.C Z C C K Z C Z .XZ.e.H.f.[ a.r.X.w.aXr.^.j V B C A Z B V OXG.r.| y.9XG.G.Q.",
"w.f.W.d.T.#XJ.B.-.C.J.rX&.:Xi.%.M.Y.E.r.b.,.!.d.f.H.!.!.,XD.&XJ.).,X9XQ.).D.Y.<.f.d.E...<XW.t.0.t.J.t.,XiXK.X.d.!.n.r.a.b.eXq.u.",
"H.#XQ.,XU.Z.6.r.A.=.i.5X,X0Xr.%.M.M.S.b.G.K.d.2Xr.q.H.u.uXf.W.I.!.3.D.w.u.r.r.,X<XL.G.E.H.L.p.1Xd.#.t.#X<Xp.0.G.d.s.g.b.d.pXd.z.",
"fX#Xw.qXJ.d.+Xr.&...H.$X5X;XB.I.r.{ E.y.J.uX#X<X0.d.!.X.#Xf.W.Z.m.0.| r.r.v.r.G.H.n.q.#X>X0X0XJ.~.#.Y.9XJ.w.K.,X!.p.f.L.Q.aX%XQ.",
"0XH.u.<Xw.d.7Xu...K.>XH.f.<X#.H.n.a.i.w.y.f.d.r.J.B.T.#.=.=.r.r.w.N.=.f.d.>XE.0.r.d.u.J.,X%X5Xd.!.W.Y.H.G.Z.e.d.Q.%.!.<Xf.H.J.H.",
">Xr.t.uX3.W.K.#Xt.kX%Xy.Z.G.r.i.>X0XI.w.q.f.!.O.n.,X%.w.*.&./.w.E.$.#.G.u.u.J.r.E.G.G.Q.Z.y.p.>Xg.g.r.>XsXH.w.y.S.A.J.<XH.$.O.#X",
"f.d.H.H.e.~.f.{.,X&X&XG.B.V.3X!.J.tXU.!.L.f.<XG.u.d.#.r.d.r.`.p.L.3.-.$.{ r.y.r.q.t.J.&.=.K.rXH.H.8.t.n.4Xa.r.T.J.$.X.V.J.,XJ.K.",
"u.Z.eX<X,XV.f.f.u.$.`.&.=.9X=X&XjX9X%XsX,Xy.W.d.X.~.z.y.Y.o.u.n.W.$.~.*.*.).e.d.q.c.Z.=.r.G.F.J.I.W.u.r.0.Z.-.0.t.t.0.#.t.5XjXJ.",
"z.H.f.$XH.u.q.E.u. .o.$.d.0X<X9.gXK.L.uXZ.[ t.^.G.!.d.w.M.Z.n.!.!.O.u.E.w.iXJ.q.!.v. .l.9XZ.0.f.$.w.=.X.$.C.S.Z.a.1XW.,.X.&XuXe.",
"H.eX#X$XK.>XE.0.9Xs.1.r.F.d.w.v.+Xu.d.:X-.x.W.d.u.d.3.r.#.r.d.Q.G.=.W.>Xq.5Xq.=.=.W.0.u.uXW.%.r.r.| r.b...0.u.G.#XL.E n S.y.&Xa.",
"F.K.#X,X,X,XK.X.2XpXW.t.E.0.y.eXs. .E.c.{ Q.d.B.d.oXf.d.,.r.u.Y.!.u.!.OXe.eXt.z.X.0XU.G.>Xt.Q.N.r.u.O.7.r.,.0.1X,X:XQ XX9X1XF.0X",
"u.i.:Xa.L.cX>Xr.i.K.Z.O.b.u.W.#.Q.u.d.3.u.<Xr.y.H.n.7XH.d.b.c.p.4Xu.u.!.A.Z.W.e.0.F.Q.:X:Xf.fXG.1X0XB.6Xw.y.).aXy.$XE.G.*X!.Q.d.",
"u.d.Q.0.G.2X#X0.W.z.....r.,.b.r.J.Q.$.d.,XL.=.0.Q.0.6XW.n.x c.G.p.1X!.0XV.!.u.,.2Xy.$.{.,XK.>X>Xd.:X=.~.J.r.J.p.G.dXH.q.#Xr.E.d.",
"(.%Xw.r.q.q.a.d.9Xd.| ~.(.!.:Xa.H.e.[ r.y.t.1Xy.m.y.u.G.:Xx a.~.U.p.H.9XuX,X-.$.eXY.$.r.H.9XJ.K.J.u.W.r.1X$.Z.q.H.fXH.d.H.t.d.!.",
"J.uX!...u.E.0.:X#Xq.u.T.V.tXp.z  XZ.{ $.r...u.W.$.!.r.#.rXu.y.d.eXp.,.p.0X#X=.$.V...=.r.d.,XE.H.Q.B.H.#X5Xa.X.t.#XH.W.$.eXE.w.I.",
"L.L.eXy.w.!.Z.0Xb.q.F.=.X.,XS.1.v.Q.t.:XF.y.r.:X!.G.r.$.!.p.-.q.>XwXu.u.O.b.=.=.0.r.,XG.E.d.e.<XQ.e.t.rX#XH.Q.Z.eXG.O.:.d.G.-.-.",
"7Xp.K.9Xy.i.t.>Xr.,XeX$.{ r.J.~.C.J.5X,X!.O.oX0XK.%XQ.y.3.oX!.<X;X9XZ.G.| t.u.d.,XJ.U.y.r.t.3.:Xf.a.r.H.G.G.I.A.w.1Xo.*.Z.0.=.O."
};
