/* XPM */
static char *_ee5ebe5be51458fdd21e0d83229294al6UnW8Mi89OKF4lS[] = {
/* columns rows colors chars-per-pixel */
"48 48 15 1 ",
"  c #FFFFFF",
". c black",
"X c #191919",
"o c gray12",
"O c #3F3F39",
"+ c #7F7F72",
"@ c gray50",
"# c #00A3CB",
"$ c #00CFFD",
"% c #9F9F8E",
"& c #BFBFAB",
"* c #87FFF7",
"= c #D2FFFD",
"- c #FFFFE4",
"; c #FFFFED",
/* pixels */
"                     ......                     ",
"                    ...$$...                    ",
"                  ...$$####...                  ",
"                  ...$$####...                  ",
"             .....------------......            ",
"             .....------------......            ",
"           ...--------------------...           ",
"           ...--------------------...           ",
"  ..     ..-------------------------...     ..  ",
"..--.  ..------------------------------..  .--..",
"..--.  ..------------------------------..  .--..",
"..---....------------------------------....---..",
"..---....------------------------------....---..",
"..--X--..---&.......--------........---..--.--..",
"..--X--..---&.......--------........---..--.--..",
"  ..-XX..------------------------------....-..  ",
"    .--..------------------------------..--.    ",
"    .--..------------------------------..--.    ",
"     ....------------------------------....     ",
"     ....------------------------------....     ",
"         ..--------------------------..         ",
"         ..--------------------------..         ",
"         ..-------............-------..         ",
"         ..+%-----++++++++++++------+..         ",
"         ...O-----------------------...         ",
"    .      ...--------------------...      .    ",
"    .      ...--------------------...      .    ",
"  ..=....    ...----------------....   ....=..  ",
"  ..=....    ...----------------....   ....=..  ",
"  ..*====.....--------------------.....====*..  ",
"  ..*====.....--------------------.....====*..  ",
"  ..***====.O-----------------------.====***..  ",
"  ..***....--------------------------....***..  ",
"  ..***....--------------------------....***..  ",
"    .**..------------------------------..**.    ",
"    .**..------------------------------..**.    ",
"     ....------------------------------....     ",
"     ....------------------------------....     ",
"       ..@@.O-----------------------.@@..       ",
"         ..  .--------------------.. ..         ",
"         ..  .--------------------.. ..         ",
"             ...----------------....            ",
"             ...----------------....            ",
"              ..----------------..              ",
"              ..----------------..              ",
"             ...-----......-----....            ",
"           .o@------.      .------@@.           ",
"           .o@------.      .;-----@@.           "
};
