/* XPM */
static char *_4bf11d12c3f453cf769df68710a07dayyh2AgcLk9sbp3GE[] = {
/* columns rows colors chars-per-pixel */
"64 64 109 2 ",
"   c #31760D",
".  c #367D0F",
"X  c #3A7E0F",
"o  c #3A7210",
"O  c #3B7A10",
"+  c #497F14",
"@  c #0A8602",
"#  c #0D8B02",
"$  c #148D04",
"%  c #1B8E05",
"&  c #0F9103",
"*  c #159404",
"=  c #1C9306",
"-  c #159B04",
";  c #1D9A06",
":  c #208F07",
">  c #278409",
",  c #2C870B",
"<  c #238B08",
"1  c #2C8C0A",
"2  c #3A810F",
"3  c #368D0D",
"4  c #39880E",
"5  c #229407",
"6  c #229B07",
"7  c #269508",
"8  c #2B9609",
"9  c #269B08",
"0  c #2C9B09",
"q  c #33960C",
"w  c #3A940E",
"e  c #339C0B",
"r  c #3B9E0D",
"t  c #3E8410",
"y  c #3B8810",
"u  c #17A204",
"i  c #1EA406",
"p  c #22A207",
"a  c #22AA07",
"s  c #26A208",
"d  c #2CA309",
"f  c #26A908",
"g  c #2CAA09",
"h  c #34A30B",
"j  c #3AA30D",
"k  c #3CA00E",
"l  c #3BA70D",
"z  c #3FA50E",
"x  c #33AA0B",
"c  c #34AA0B",
"v  c #33A80C",
"b  c #39A90C",
"n  c #38AB0C",
"m  c #3EAB0E",
"M  c #3EAD0E",
"N  c #2FB10A",
"B  c #34B10B",
"V  c #3AB30D",
"C  c #3CB20D",
"Z  c #3EBB0E",
"A  c #41970F",
"S  c #419E0F",
"D  c #428011",
"F  c #438B11",
"G  c #458B12",
"H  c #538E15",
"J  c #449411",
"K  c #4B9213",
"L  c #459A10",
"P  c #499B11",
"I  c #559E14",
"U  c #40A10E",
"Y  c #40A50F",
"T  c #46A40F",
"R  c #43AB0F",
"E  c #44A80F",
"W  c #44AB0F",
"Q  c #40AC0E",
"!  c #42B20F",
"~  c #44B50F",
"^  c #46A310",
"/  c #44A510",
"(  c #46A510",
")  c #47A711",
"_  c #4AA611",
"`  c #45AB10",
"'  c #46AF10",
"]  c #4AA911",
"[  c #4BAC11",
"{  c #4AAD11",
"}  c #52A613",
"|  c #51AC13",
" . c #51AF13",
".. c #46B210",
"X. c #48B210",
"o. c #4DB112",
"O. c #4FB312",
"+. c #4BB411",
"@. c #47B810",
"#. c #4CBA12",
"$. c #53B313",
"%. c #54B514",
"&. c #59B215",
"*. c #52BA13",
"=. c #53BA13",
"-. c #5ABB15",
";. c #4FC312",
":. c #59C314",
">. c #60C116",
/* pixels */
"%.o.8 0 b 8 o r v h l = % h h { j e R v l 9 v Q 0 h 8 d j e r T T X.s M p a { ' ` 0 0 9 = 8 e  .) z j , 7 = s 0 5 5 e e d % 5 0 ",
"R M h 9 8 8 w j 8 = 0 8 5 9 g h e 9 0 d m d 7 0 0 e e 9 l l e r r ^ 0 ' v d Q l e d d 5 e r r ] j h k G q 5 0 0 e 5 $ d 9 5 5 = ",
"~ g g * 5 R b l e & 8 j h h d = - ; 5 0 U e = 0 8 Y Y e r k e 7 0 r r Y e r l 6 ; & = 8 j 9 v h r 7 e ' ) r k R k 0 # 7 = 7 = = ",
"{ d g = 9 m h A 8 - m R W h v 5 9 $ 7 8 ^ r 6 g g 9 e 8 8 U 0 6 v e z ; h q r b 6 $ % 8 l * l z 0 e 0 M o.l r W b 0 9 d = 0 j 8 ",
"U R { 0 j e 0 ] e = k *.Y 7 j e e * h = e 8 6 s v 6 q 7 = v l 5 h 0 k ; X.o.l X.7 x d v h = g ] 9 b h e ' 0 8 +.V s h 9 = 0 ) r ",
"v h ) 0 9 0 b $.Y r l :.v 5 r e U 5 k e 9 9 v r e 5 S h C R h = 5 0 e 7  .>.~ ` Y +.c g d ; 0 R b b T e r 8 5 ] 7 = m 0 $ s b d ",
"i 9 0 r 5 g b ) ) r R W h k ` 8 h 6 0 l 6 9 ~ ' Y 8 W -.~ k 0 s 0 h k h k ] ` U j #.{ 8 5 % 8 e z v k K K h 0 ) h d ` j 7 a v 0 ",
"; b 8 b ! C j r r l m k e r ) 7 b f 0 b = h b Y Y 9 l &.$.0 * ; v m Y M 0 0 r 8 d ..{ k h h v v U z e 2 L j e Q b g v ' z 6 d h ",
"0 l v B ;.' U j 0 ) R v m k z v 0 8 v l 8 8 e ] e ; h T { e = 0 f C Q c 5 8 j b C 5 k ) &.] b @.$.T q 0 l k 8 k j 8 - b k 8 z r ",
") d ; 6 j ^ h l d ` ) d Y 0 x x d e j e Y R r U 5 % r z ] e 9 z 0 { k h 0 k j o.#.6 0 k _ { d v ..j r e r j 6 6 l h ; 0 ) R ~ j ",
"c q % 9 8 r e k r e k e Y h Y l = 5 r Y ! ..8 8 0 9 b k ) e 0 ` Y ] k k C b &.k l p e e r r h 6 e r 8 8 e = # - R X.R e ) b g h ",
"v h R m j j 0 r 8 g b l @.! Q k : 1 k Y v ) = ; b v d h h 6 5 d j S Q m X.c { = e i 8 ` z 8 0 * e r = = 0 % @ $ ) { {  .) l = 7 ",
"v h { W r z m e $ b b Q v h h U Y ' Y l z T h g 6 0 = = 0 6 % 8 0 0 k R Y h b $ = ; 6 d m 9 = $ e r 8 e v 6 = 0 U W Y U U j 6 5 ",
"e U ) ` r e j e q r r l h 8 9 d c h r C @.z 8 5 7 m d $ h e 5 e v h h 8 U e 0 $ % % 0 0 r 8 r 8 e k v j 8 = = Q m v 0 5 S r i 9 ",
"j z ` v h m 0 r w 8 r 0 0 s 5 c x = e R v h 0 8 e +.h = g v 0 d ~ X.= # r 0 ; 5 r 8 8 d 0 h r w { X.v 0 h v 9 h k r d s } I d 0 ",
"d p 8 0 5 j p h e   8 j $ 5 8 j h = Y k e z ` h m k 8 ; v h l 8 h ) $ 5 8 = * = { l 5 s d c 6 { -.&.e 9 6 0 8 v j 9 c X. .} v v ",
"R v = j 8 z x M z G q ) 5 7 r z 8 5 0 d h *.o.v h r 8 = S k ) 5 6 e 8 U h 9 0 8 U b h 0 # = f { M m U e 5 = h h 8 5 k { ..h 8 d ",
"b T e ^ 8 j v h ) S e P q 6 s 5 r l 6 e 0 b m v v 0 r 0 0 '  .% 9 U k ^ 0 8 r U ` Q v Y 6 # d M m 9 { l h d d j v h 8 0 R 0 $ e ",
"8 j { { e h v 8 3 e e r 7 = * * m z $ r 8 0 6 d m h ` a = l ) 5 7 ] U e m ) R b X.~ e r k 7 e 0 X.v z e 0 k 8 z v Q v 9 z Y 5 r ",
"0 h z M = 0 8 5 r d e h 5 9 b c C z $ r 0 z 5 d l r r = 5 e e 9 7 { ) 9 R o.m g d e r r c m Y 8 k Y d f r r r q 8 0 k 0 d Q ; 8 ",
"m r R v 5 C b e h d b c R p ` @.d z $ e e v = 7 0 r r 8 5 z l 9 7 c C ; U k s 6 7 w U e v +.{ e 7 h d - e l { 8 e 7 e 0 = l $ $ ",
"* d o.0 v B V *.R h z e 0 5 0 d = 0 ; k { 8 % 6 p h b e = ' r < 9 x l % 0 m i = q J r z l ` ] { 5 * h 8 = p l 5 v k 6 ; 0 l 8 = ",
"5 % U 5 d B M ] j v Y ; * e 8 0 0 0 9 ]  .9 5 0 s 0 v h = 0 ) q e Y r 8 0 @.i s r l - j z k m { e $ 0 _ e s 6 e j Y p s v z v { ",
"{ % q 9 l R 8 j R h e ; 6 *.0 d f d 5 @.C 6 = j 0 8 r ] d 0 { e 8 k k v +.M 7 8 h l 6 ` k g v z s = j { m h 6 v e 8 0 ..v e v U ",
"z 0 5 8 o.T R k T h h 0 r { q 8 h 9 0 h e 0 8 h v e F r ; 8 j h 9 m v h g 8 7 0 e 0 v -.k 6 0 Y f 0 { ` e j e d d $ 8 ) k e j r ",
"k { h c { ` $.R $.o.b T { h v = = 6 r e ; e r e v h k 9 - d v N 6 j X.m v 6 e T d 0 8 { r 0 j m h 0 h ) R v 7 6 f $ = R j v ; = ",
"r ~ R ..r e T U ^ ] 0 r A = s 6 % b M e * e b l l h Q x * = * s 9 0 R v V 0 z v 9 = 5 e r h e d c x ; d v e 9 6 8 6 9 0 k l g f ",
"8 ) L U 0 % 8 ) $.~ 6 k l s 0 X.0 R ..d 5 r *.@.e 8 l Y 7 7 * ; 0 f e 5 5 0 R 0 5 # d 0 8 7 h c 0 d * 9 h e 8 * 8 0 ! h z $.z h ",
"e r h s * * e e { v = l d = ; ` r ` R x +.W o.M q 8 k R d 8 5 = = 6 j 5 7 h B { M d b r 0 s r ` 0 r $ % 8 ^ 7 = e z #.{ ` U k e ",
"e 6 b 0 5 7 Q x l j 5 8 7 d 6 e 3 q 8 l $...] 0 ! - h { ~ z k z 5 = k r 8 e d d R z C m c B { +.z Y r 8 9 U e 9 8 v M ) ` m e 5 ",
"r 0 r ) U 7 h j d M r 7 8 9 8 p 1 > 0 ^ _ k ) 5 v # = r U r e { z ! Q l h v 8 = e z h l f a j 8 k b  .&.r z v a - 8 m ..o.l 8 5 ",
"h R { Y k 6 ; e { z z m j 8 e * d s e ^ U q L 0 0 $ $ 8 e e = 0 X.R M +.Y k 7 h r r = r s 6 e j M d j _ U W f - 5 8 Q X.&.r 0 6 ",
"l z ) j h 8 - i ) r c *.Y = e $ 9 v d e e j k 0 h 8 0 q h h = ; b c d v Y U r Y b r = e 0 0 8 e 8 8 d e z l = @ 8 h Y r  .^ e 5 ",
"r z z k 0 5 # - d 0 h R U ; g m 0 h s 6 b b h g g 9 q w g f = ; 9 e 9 9 h b z z d r q { W 8 5 7 e e j o.Q e % 5 ; g c 0 j { l 8 ",
"r 0 m d r j $ 5 v l h v { r 9 ..f M 5 = v Y j { d h 0 j ; ; c 0 = 0 8 e 7 ; g C d p . U ^ 5 % 8 8 r ^ $.] r e ) ~ C d 9 9 T j r ",
"k = d 6 e h 5 7 ) j m v ..] 8 e 0 j r d h r e v j e 5 f ; x ..z 9 k ) ) v 0 c X.c - = h r d 8 8 9 9 v ` ) 8 d ) ~ f b 7 8 k r e ",
"m = 5 = 6 0 j b Q 0 r d f h z % 5 0 C v 0 k 6 9 g 9 h f f { W d 9 r r { { ] j r 5 7 % 7 l Q ' X.h 9 v m %.) 0 e 9 * v h m d v z ",
"V 0 6 e 5 v z @.M z R f = 8 z 0 9 c x 0 8 T e d 9 0 e e 8 ) r 9 ; 0 8 ) `  .r 8 e Y 9 ; l Y d N 9 b ] l o.) e d = = j ) h * 9 b ",
"h h d r e v d b m Y ' s 5 q w 0 5 0 M ; 0 U T 0 7 8 Q h y r q j v 0 w d C ' z 0 9 0 0 - z ) c a = e k ; ] z 0 9 9 0 T ] 8 = 5 R ",
"q 9 v 0 e d 8 8 e U ` 0 = e k h e 0 e % 0 8 { ` T 8 c x R m Y X.R r r g B Z W o.x 5 1 $ m { v 6 0 b s = d v 5 0 b 0 e v 0 8 e z ",
"d 6 * 9 ; ; 0 8 7 7 e 8 $ c m d b e k k T = R X.~ 0 0 x c j 0 Y l k z h h z r ' C ; < 9 z ^ e 8 m v l 0 - - # e +.d = 7 0 c 0 r ",
"C d $ s 5 % h b 5 e 8 7 % e m 0 r e z ..m 9 r z d d 5 8 h r h 8 0 l R U 8 q e f 0 v B x v e l e k e U 8 5 $ 7 v M g R 9 d l h ! ",
"{ z = g 0 8 a 9 h z e b h 5 s d r e ) d p 9 7 0 k e % 8 k Y r 8 % r R e e 8 9 9 e { V - V x l e T k r 8 0 0 ^ h 8 c { 0 0 k r o.",
"_ F 7 h v l ; 0 z ; 0 Y R i s 8 ^ w r v ; h r 0 j r 7 M W -.z e = = r M h h = m r ) 6 - d v m r W 8 0 d l k r k q m k 0 5 e e ^ ",
"j U r k 9 r < d l = 0 r r h f 9 0 F 0 V 7 h r e r e j l r  .z e 9 = 8 R e j 0 r e j 0 f = 8 h 7 7 0 g ~ R r ; 0 m c 0 8 0 L r Y ",
"h b h 8 = j 7 9 v h 3 7 = z d 5 9 q l m ) ' l 0 0 h s 9 q r z R h 9 R h 7 e m h 0 Q v 9 9 d e 8 e l g d ] { 0 * v ; ; = h J t j ",
"h o.v ; % 7 e 7 r r % * 0 r r x s j d h 0 j r ; s d 9 5 d p m  .c = ` r 5 j ) ; 0 m * 9 d = e z { g 9 5 { z e d 0 $ # ; ! 9 r ^ ",
"d o.R = 0 z j 0 9 p = 9 d { ) h = e h e e 8 U 9 h l f 0 d g Y ) h r Y 0 0 j r $ 0 8 = 6 o.8 r 8 ) 0 h @.R r 0 ) r 7 $ 9 ! h h h ",
"8 j Y e v z j p ; i d ..9 U e ; i 0 h 7 e 5 k e r k z v R j Y v R R ' c b s h 1 r h d 5 ) v 8 8 8 e 8 _ $.z : e z r 8 e r ' 0 0 ",
"k k c R M 0 4 6 s = 0  .` o.6 - - a f r h l h ` 9 8 j h { r k g b 7 f 6 0 9 8 R ] j h r k j r Y h = 8 Y { 0 7 e r e q e e $.e d ",
"*.U 0 ! B e K 7 6 5 r ) { $.p x 6 $ 0 0 l { k ) 5 0 v = j j z f i ; $ 5 8 r 7 v r r q z R o.~ c b = h M m 0 h m m 8 r h b o.M c ",
"X.l e ] 9 h { e = j R b k W = j r 8 0 6 d r e 0 h a g = 5 = 9 5 p u 5 e e U r 6 7 e 0 v R Q { r l v h z v s 0 h c ; c { j v h k ",
"T 0 0 _ 7 l m k 0 *.W e h h 8 e ) o.c 0 0 j z 7 j m ; ; % ; v 9 h = = h 0 e v = e h h v f d r ) r e 8 ) %.l 8 9 d f x { z 5 5 r ",
"r e l z 0 b k r m Q { h s f Y z c +.M b j r R d 0 e = 9 0 = V h j 5 5 - $ 8 6 9 8 8 c ; = v W z j w 8 U ^ e 8 g d 5 = d v Q x R ",
"0 d ' ..b h e h 0 7 g ; 9 W o.] #...W *.R 8 r 0 7 m d 0 h = e k k ; c = - b 0 e 8 e 8 5 0 v v b g h 8 7 5 s 6 6 8 8 7 = 0 { #.m ",
"e r S ) j e 8 r 0 % = = h { R w } b l  .h $ 8 k d l 0 ; i 9 r m l = 0 h 9 o.v 8 v w % 8 M d 7 r 6 5 = = = d d d e Y r % 5 ) X.e ",
"k ] ) ) R Y h 9 R q , 5 h e 9 J H 0 r k 6 8 h r 0 e 7 7 = 6 e x d ; j ) 8 ] 0 = 5 r 8 0 { l ; 7 7 $ 8 0 % 5 0 h U r D t d d T e ",
"h b z ) ` Q z = Q $.k q h 9 9 C w % r 0 $ h 0 0 e r r e 5 7 9 v z 0 l z 0 ' 0 0 = ' m h ) e c a 9 9 5 t 5 5 8 R R U + K ! b v W ",
"0 e U r z -.Q 7 e l s = 0 0 h = v 0 e 8 0 M 9 9 r r } U r q e r ) e e k f v v 0 5 h b k T r &.l m Q 9 ^ 9 9 b #.h Y v v ' c l e ",
"0 r l 9 h ] k 7 j 0 $ = 8 5 e 8 h g = q z h 7 5 h 9 _ k r X q r j R b ~ v m e 5 m p 5 r ` m _ R d Y 8 m x 6 v h r  .k 8 U 9 h e ",
"B m s 7 7 8 q r ! e % c b b k e h 9 # 7 0 0 z 0 p d 0 d z O w m c r z ! +.M 9 = ' s = 7 j ! x z d e h 0 m 5 0 8 j *.Y e r 0 0 m ",
"b ] c % 8 h 9 Y k 8 0 g d ..0 . F d $ 5 5 = 8 h 7 g 9 5 W 0 9 0 W r 7 e ] k 5 = e % 5 9 r R h h v d l Y { e = 8 U z h 6 R v 9 x ",
"l k ' 0 6 x v W e e d ; = z d , e c 0 Y 0 9 7 Y z l 9 = h e 8 8 W X.d 0 = e = = 5 8 z v v e 0 ` b 0 0 ] m r v d ' v = 6 h e ; 6 ",
"] e m V d q 8 Y 5 ` { = # 8 v b s c { ` v 5 r X.x R x 9 5 U z ` o.o.d r $ 8 8 e Y d m 0 9 8 7 U r q 7 r k h B g 9 Y % = p 7 5 : "
};
