/* XPM */
static char *_c2f9de925734cb9addb039188f39381gVrQQsnCavsjp9wm[] = {
/* columns rows colors chars-per-pixel */
"64 64 255 2 ",
"   c #0E0E0E",
".  c #0A0507",
"X  c #160405",
"o  c #12100F",
"O  c #1D120B",
"+  c #131212",
"@  c #1B1B1B",
"#  c #14181A",
"$  c #120E17",
"%  c #2B0101",
"&  c #260703",
"*  c #350807",
"=  c #2D140E",
"-  c #25190B",
";  c #3B150E",
":  c #33160C",
">  c #2B1B12",
",  c #3C1A11",
"<  c #351C13",
"1  c #1D261A",
"2  c #1B3616",
"3  c #3A2618",
"4  c #23391E",
"5  c #24341B",
"6  c #2A2B0C",
"7  c #191B22",
"8  c #211A23",
"9  c #1C2122",
"0  c #232423",
"q  c #2A2D2B",
"w  c #262A27",
"e  c #2D332D",
"r  c #283825",
"t  c #36342E",
"y  c #353C34",
"u  c #393E39",
"i  c #343632",
"p  c #362B2A",
"a  c #47170E",
"s  c #581A0E",
"d  c #431B11",
"f  c #471811",
"g  c #561D12",
"h  c #570804",
"j  c #65190D",
"k  c #78190C",
"l  c #62160E",
"z  c #462417",
"x  c #592516",
"c  c #502916",
"v  c #662514",
"b  c #772814",
"n  c #783718",
"m  c #6D2911",
"M  c #4E342B",
"N  c #723225",
"B  c #1B4D11",
"V  c #26481B",
"C  c #28591B",
"Z  c #2A540B",
"A  c #1B6E0E",
"S  c #276C0D",
"D  c #26780B",
"F  c #2C6718",
"G  c #336918",
"H  c #357918",
"J  c #32740E",
"K  c #2D4926",
"L  c #355B26",
"P  c #3A4537",
"I  c #33512B",
"U  c #3B6829",
"Y  c #397626",
"T  c #3E6733",
"R  c #3D7032",
"E  c #447113",
"W  c #41483D",
"Q  c #42593B",
"!  c #6C4B30",
"~  c #476A3A",
"^  c #4A762F",
"/  c #5D5113",
"(  c #3F4740",
")  c #444D43",
"_  c #475544",
"`  c #456240",
"'  c #8C1A09",
"]  c #A41904",
"[  c #98270B",
"{  c #872B12",
"}  c #863515",
"|  c #973913",
" . c #902B0F",
".. c #A82C0C",
"X. c #A8360C",
"o. c #B7350B",
"O. c #B43B15",
"+. c #B02F0C",
"@. c #913622",
"#. c #D03505",
"$. c #9A4515",
"%. c #904E1D",
"&. c #BC470C",
"*. c #A74918",
"=. c #B75616",
"-. c #B05116",
";. c #BC6316",
":. c #944F26",
">. c #AF5822",
",. c #936133",
"<. c #B46A26",
"1. c #9F651C",
"2. c #C6470B",
"3. c #C9570C",
"4. c #D3560D",
"5. c #C75814",
"6. c #D65413",
"7. c #E2550B",
"8. c #D8670C",
"9. c #CA6518",
"0. c #D66814",
"q. c #D97817",
"w. c #CB7617",
"e. c #E56916",
"r. c #E5771C",
"t. c #EC710E",
"y. c #D87B29",
"u. c #CB7125",
"i. c #C65B22",
"p. c #0C8B03",
"a. c #0A8502",
"s. c #148B05",
"d. c #1C8D05",
"f. c #1B8C09",
"g. c #198707",
"h. c #0A9504",
"j. c #139203",
"k. c #1C9305",
"l. c #1D9B06",
"z. c #1D940A",
"x. c #1B9B0A",
"c. c #159808",
"v. c #238D05",
"b. c #238E0B",
"n. c #28890A",
"m. c #378A0B",
"M. c #249405",
"N. c #2B9406",
"B. c #239A06",
"V. c #2A9C06",
"C. c #23940B",
"Z. c #2B950B",
"A. c #249B0B",
"S. c #2B9B0C",
"D. c #33960C",
"F. c #339C0C",
"G. c #3B9C0D",
"H. c #359808",
"J. c #2A8713",
"K. c #388718",
"L. c #2B9412",
"P. c #2C9C11",
"I. c #259911",
"U. c #349512",
"Y. c #3C9514",
"T. c #339C12",
"R. c #3B9D12",
"E. c #39971A",
"W. c #1BA30A",
"Q. c #23A30C",
"!. c #2CA30C",
"~. c #2CAA0D",
"^. c #29A608",
"/. c #33A30D",
"(. c #3BA30D",
"). c #34AA0C",
"_. c #3BAB0D",
"`. c #35A407",
"'. c #37B30E",
"]. c #2CA312",
"[. c #2AA811",
"{. c #34A312",
"}. c #3CA412",
"|. c #35AB12",
" X c #3CAB13",
".X c #3CAB19",
"XX c #39A61A",
"oX c #3DB313",
"OX c #3AB616",
"+X c #2EB211",
"@X c #3D8324",
"#X c #3D9D24",
"$X c #38A126",
"%X c #43980D",
"&X c #468716",
"*X c #429C13",
"=X c #489918",
"-X c #539718",
";X c #43A40E",
":X c #42AB0E",
">X c #4BA80F",
",X c #47B30E",
"<X c #43A413",
"1X c #4BA513",
"2X c #44AB14",
"3X c #4BAB14",
"4X c #44A41A",
"5X c #44AC1A",
"6X c #4AAD1A",
"7X c #4CA51B",
"8X c #52AC14",
"9X c #53AC1A",
"0X c #54A716",
"qX c #44B214",
"wX c #4CB315",
"eX c #4CBA14",
"rX c #44B31A",
"tX c #4AB31A",
"yX c #47BA19",
"uX c #52B415",
"iX c #53B21A",
"pX c #57B81A",
"aX c #62BD1E",
"sX c #468F26",
"dX c #58BC22",
"fX c #4EAB23",
"gX c #66B324",
"hX c #3EC114",
"jX c #56C21B",
"kX c #4BC213",
"lX c #5EC223",
"zX c #64CD21",
"xX c #64CC1F",
"cX c #849F2C",
"vX c #B39020",
"bX c #EB8617",
"nX c #F28915",
"mX c #F69A19",
"MX c #E99515",
"NX c #FAAB16",
"BX c #D58E2F",
"VX c #E88826",
"CX c #E99827",
"ZX c #EBA82A",
"AX c #FBBB26",
"SX c #FAB737",
"DX c #EFA832",
"FX c #C98515",
"GX c #FECA1D",
"HX c #FEC827",
"JX c #FDD034",
"KX c #BF8C4B",
"LX c #EFB343",
"PX c #CEA34F",
"IX c #FAD351",
/* pixels */
"pXuXM.V.'.L.S *X`./._.l.g._.`.3X(.D.qX:X(.B./.qXF./.M././.F.R.:X%XuXB.oXQ.Q.,X3X3XA.V.A.d.M.D.uX>X}.(.n.J.k.^.^.k.M.F.F.].j.C.S.",
":X:X{.S.Z.N.%X<XV.d.S.A.f.V.|././.A.S.^.2XP.M.D.S.T.D.N.2X}.F.F.*X:XM.3X/.[.wX(.S.{.!.B.].}.F.3XG./.(.&XZ.l.F.N.Z.C.s.{.!.z.B.d.",
"OX^.~.j.v._._._.P.p.M.}.T.!.~.d.z.x.l.V.:XF.k.P.V.2X6XD./.(.F.M.*X(.G.<XH.R.}.l.x.h.x.Z.*XS._.{.F.M.D.tX1XG.(.<X<XP.a.B.M.C.d.v.",
"wXV.~.s.B.2X`.Y.D.c.2X2X5X(. Xk.Q.s.C.D.1XT.l.~.|.S.U.Z.b.5XS.B.fXG.}.l./.N.F.OXB.s.f.N.}.p._.<XV./.A._.iX(.`.:X_.V.A.{.s.T.}.Z.",
"(.>XwXS. XD.Z.9XN.s.}.jX}.N.}./.{.s.|.d.F.V.B.!.).l.U.Z.s.}..Xz.gXF.}.k.wXwX`.eXv. X^.|._.j.(.6Xz..X^.N.6XS.M.eXqXW./.A.z.V.4XG.",
"~.`.2XF.B.N._.uX>X}.(.zX^.f.R.*X<Xb.5XU.A.S.)./.F.C.4X(.qX6X].R.cXB.F.k.8XxXwX;X:XeX).~.~.B.B.3X_.).>XY.*XA.v.9XC.s.2XN.s.^. X^.",
"W.A.F.T.d.'._.>X8XD.2X2XG.4X6XM..XB.S._.C.S.wX3X4XZ.7XaXwX}.A.vXvXsX}.D.}.1X3X*XG.eXqXM.l.g.C.S._.^.:X-X%X^.F.>X!.^.2X(.z.[.).V.",
"x..XM._.qXOX/.*XG.}.:X(.G.*X6XC. X{.A.qXf.{.;X>XqX].5XpXpX!.P.BXPXPXcXyX^.S.`.V.^.wX>X;XF.F.~.`.;X}.H.D -X`.D.,X_.).!.3X2Xl.^./.",
"S.(.).|.jX:X4X/.V.qX5X/.5X}.4X XF.N..XqXF.S.G.1Xm.D / J J Z / BX>.y.DX/ Z J &XH._.M._.wXjXuX_.eXpX}.H.S.}.<XN.(.(.M.c.qX<Xk.:XG.",
"6X!.x.B.(.2X*X4XS.6X<XS. XF. XOX~.F.U.S Z 6 6 : % & n s h h k w.o.] BX} & n s % : - 6 Z E 7XS._.wXG.R.S.*X Xx.B.}.(.c.Z.7X XeX`.",
").Z.g.B.S.}.U.}.{.D.<XF.6X<X<Xm.Z - & & * % * ; : z w.x g n m 9.| ' e.<.< %.n = a * * % % & 6 Z n.R.^.V.G.k.a.c.2XpX.XU.3X_.^.F.",
"~.{.6X X(.*XV.4XS.|.oX2XfXH 6 X & % ; : 3 c 3 3 3 u.-.d } $.*.VXm k #.5.d n &.c 3 t c z < : % & & 6 B b./.j.a.s.3X8XiXuX>X}.s.A.",
"].`.wX3XF.<XtXD.g.rX(.G - X X * 3 3 z d d ; ; a $.bX| { =.3.t.8.1.*.#.t.{ s 2.s d a ; , , , z c = & X - F M.z./.;X2X<X1X}.}.!.l.",
"D.<X1X3X/.D.}.*XR.n.5 X X = 3 3 < : a j s a ; j 3.&.[ 8.7.t.nX[ >.q.7.t.bX .[ a n n * a ; ; a ! : , , X X 5 D OX2X(.{.C.=XG.Q.B.",
"}..X6X(.T.6XF.<XH @ . & 3 3 : : = s  .b s s s  .2.{ [ 4.bXmX2. .[ t.q.4.AX3.[ j } w.j ; f s m w.d = < 3 < . 1 E._.R.!.Q.0X0X!.S.",
"F.B.S.V.M.XXB.H.5 . X 3 = = : ; a s q.3.' [ [ &.o.| t.mXHX3.4.;.*.nXmXMXmX3.+.[ k 3.-.} v s $.5.g > : > < = . 5 }.N.5XiX9X8X}.].",
":X Xf.<XL.}.OXY o . z > > d b d g j =.t.o.O.+.&.FX0.NXHXZX;.MXMX;.GXNXNXHX6.i.0.k  .| 3.| } | b s , ; = = 3 O   Y z.4XpXwX(.l.].",
" X4XF.1XZ.5XoXF . O c x 3 x $.g v { 6.e.O.#.| :.u.u.AXmXBX1.BXLXKXLXZXAXJXr.u.VX' b { u.BX%.n v n v 3 < > > 3 . U oXP.T.5XD.f.T.",
"C.;X0X8XF.Y.J.L o > , | a a *.a k +.7.6.e.6.X.u.&.2.SXMXCXFXHXIXPXIXJXJXJXmXAXr.+. .*.DXDX| [ j *.$.f ; = = 3 1 T K.E.C.2X2XC.*X",
"V./.;XtXz.2 $ q P > < $.c ; -.v  .7.e.6.t.e...q...r.SXmXSXbXCXZXvXJXHXIXHXmXHX0.] *.BXw.-.X.{ l | >.; d d ; - P q $ 5 T._.tXC.].",
"6X!.3X.XL.@XH D I y z } b g X.%.5.t.r.y.8.t.+.q.9.y.y.y.u.O.=.BXFXGXGXHXAXmXr.6.O.>.=.[ ....b a } } * g g a i P K.S H E.C.4Xs.p.",
"h.].dX{.fXyXhXzXF y W m ' ..[ <.mX0.#.2.4.nX2.DX=.' BXi.r.O.6.r.MXMXDXJXLXt.0.0.i.=. .k l $.<.l m v s s a y ( C oXrXP.$XP.4XP.f.",
"f.d.tXL.#X|.T.&XC > e P M *.$.#.bX9... ...nXVXDX[ k VX>.+.X.#.r.nX8.y.DX0.VXBX8. .X.{ O.>.} X.' k ' m M P e > 2 K.R.l.$X XqX`.rX",
"pXg.C V 5 r 9 9 1 # @ 9 w P ! :.O.5.&.k [ 5.LX;...k -.9...' r.VXmXBX2.6.[ nXVXX.v 6.[ t.VX .2.| N M u q 0 @ # 7 8 0 r r V F }.<X",
"_.J.4 V G H =XY.;XN.K > @ @ 7 w i ! ! x N l BX:.v x N *.*.| :.>.DX,.| %.| *.@...N | } >.<.! ! P w @ @ @ 0 e y C K 1 9 0 8 7 K.(.",
"(.8X^.'.uX,XjX:XuXeXY q 9 # + + # # 7 q e i ! ! M N N @.:.<.{ O.>.j >.>.b N @.,.,.M M y w 7 # + + o @ 0 q y Y [.XXs.J.K.G F z.k.",
"/.8X:XeXH.F.;X;X%X:XH i w > + + + + +     + $ # 7 7 p p w M t p M p p q 0 0 7 7 $ # $   + + $ + + + 7 w y P J.].P.P.P.T.,X_.|.[.",
"Z.1X*X<XD.d.N.2XiXyXJ.P e 0 @ + +       +   + o o   . .   . . . .   .   $ .     +   + o       + # @ 0 e P R ].z.S.S.rX{.(.dX2X`.",
"T.G./.Q.j.s.F.H.uX).f.Q P q 0 @ + +             o   +   + + + o + +   + $ $               o + + @ 0 q u _ 7XL.z.{.<XpXuX2X<X<XH.",
"F.z.oXA.z.N.wX).`.(.l.K.W y q 9 @ + +                                   .               o + + @ 0 q P ) Y 3XU.].Z. XoX;X2X5XD.M.",
"G.A.F.1X<XM.!.T.^.qX}.N.R ) y q 9 @ + + o                                             o o # @ 0 q u ) ~ R.5X+X[.x.L.2XuXiX}.N.z.",
"/.2XwX>X(.B.l.D.wX(.}.2X(.T ) y q 0 @ @ + +                                       o o + @ @ 0 q u ) ~ 0X4XtX+Xx.C.U.tXiXpXH.!.S.",
"{.(.>XG./.C.h.W.3XG./.aX2Xb.~ ) u e w > @ + + o o     o                         o + + @ 1 0 e u ) _ E.{.5X:XC.A ^./. XD.0X>XZ.v.",
"F.}.1X}.S.M.h.c./.S.(.2X4Xx.{.~ ) ( e q 0 @ @ @ + + o + o             + + + + + @ @ 8 0 q i P _ ~ E.5XiXrX}.g.I.B.[._.!.(.uX}.Z.",
"F.S.2X^./.<Xs.C.}.|.{.!.8X*XQ.dXY ` W P e q 0 7 @ @ + + + + o o + + + + + # # @ 7 0 w i P ) _ R U.4X1XdX9XT.T.9XwXoX`.A.k.2X(.G.",
"}.d.].x.`.(.M.M.3XR.5X).iX8XI.R.{.#X~ ) W y e q 0 0 1 @ @ @ @ @ # # @ @ > 1 0 w q e y P ) ~ @XP.T.P.}.3X1XN.{.1XyX^. XM.M.:X%XH.",
":Xj.A.d.M.^.(.2XqXN.H.).]. X5Xf.J.{.yXE.T _ W P y y e w w w 0 0 0 0 0 w q q e u u ( _ T sX6XyXdX{.I.}.2XdX5XS.S.I.p. XG..X`.).(.",
"oXV.z.}.M.{.(.eX_.:X2X~.z.U.5XZ.P..X.X_.A e U R P P P P y i e y y y i u u ( P P U ~ y A qX5XS.oXP.5X6X}.iX1XT.].k.s.(.>X!.j.B._.",
"{.{.`.T.R.{.F._.:X;X6XB.A.U.Y.T.C.P.rXQ.V e =XF.J.J.sXY L ~ U P I L U U Y @X#XT.!.Z.P 4 5X1X.X[.I.D.5Xz.uX<XF.P.C./.3XwXB.d.z.5X",
"N.V.oXC.G.^.N.A.D.;X3X^.C.F.}.{.{.L.XXg.r K 9XiXfXN.oX|.rX2X2XF w D.}.|.hXkXyXdX.XC.C 0 =XpX}.I.S.rXQ.f.~.|.k.S. XV.D.{.V.M.`.<X",
"^.A.p.A.l.x.F.N.C.v.F.Z.s..X X!..XE.5XJ q A .X9XyX{.T..X X<X!.U r 4X6X}.|.5X%X6XyXA.A w G 3XY.L.6X|. XF.c.c.a.S.eX^.d.C.S. XB.F.",
"oXS.p.^.z.f.`.oXk.G.N.M.v./.5XF.{.F.3XV y v.XX<X].].L.D.}.F.}.C r }.3X4XD.D.T.~.P. X`.K 5 S.5XR.XXU.4XS.C.p.Z._.,X~.5XV.~.}.F.qX",
"uX3Xs.+XB.V.Q.l./..XV.2X{.B.!.{.*X{.U.w C [.N.R.<XR.f.Z.4X1X(.C r R.3XG.{.U.P.C.U.fXhXA e J.oXR.1X4X=XZ.T.U.6X}.z.'.iXN.S.<XG.eX",
"7Xm.n./. X Xc.Q.:Xk.S.2X5XA.].V.fX*XZ w A  X}.P.<XR.C.qX6XaX2XF r f.}.5X{.}.I.rX*XfXI.g.e C qXR.tXZ.S.!..X<X/.<Xm.2XG.S.C.H.H.<X",
"{.<XR.}.A.*Xg._.}.j.P.G.}.}.].I.T.&X2 K v.<XF.E.R.T.}.5XF.9X2XC r f.V.6X(.}.].}.F.R.T./.K 1 D.Z.L.T. XyX2XR.l.A.3X|.N.V.S.%X*X<X",
"~.(./.A.s.5XM.M.}.}.m.I.M. X{.C.|.J 0 G wX6X.XF.P.|.].I.R.<X XG r z.wX}.Z.T..X}.F.qX|.S.A q S ^.F.5X|.^.3XwXS.p.{.c.l.j./.=XJ }.",
"`.wX).l.s.n.D.C.}./.v.z.].F.F.5X~.B q n.T.XX/.A.Q.{.B.C.F.B.2X^ 2 g.6X}.z.<X6XA./.rXj.].P.r V  XfX_.P.f.uX_.R./.S.p.p.l.yXB.{.1X",
"F.pX Xf.!.<X}.S.N.A.c.x.|.8X0X{.f.5 K S.XXZ.7XN..X X{.S.!.+X3XU r D.3XS.S.}.%Xp.R.Z.b.I.eXU 9 A iXP.Q.dX<XT.D.3X/.C.a.A.qX(.`.|.",
"B.;X}.S.).(.(.^.z.W.(.eXB.4XD.Q.A 9 H P.T.C. XR.R.<X<X}.1X/.qXG 4 <XtX XoX~.|.n.G.}.XXf.uXK.r B {.T.U.3XpX2Xf.G. XR.M.D.F.tXV.A.",
"/.;X|.>XoX^.m.C.[.z.D.8X6XwXI.W.B w I.{.}.}.R.6XL.V.}.!.iXG. XH 5 v.~.M.T.S.I.2X3X(.}.{.<X*XK 5 F.x.Z.5XuXF.M.F.F.G.G.D.F.iXF.S.",
"pX;XB.yX).F.-XN.l.k.}.7XuXpX^.{.e C /.T. XpX;X6XM.P. Xv.R.<XoXF r f.s.I.L.R.Z.}.}.*XF.<X3XeXY 0 J.x.E.yX.XB. X2X XV.%X(.'.pX2X_.",
",X(.S.3Xl.F.9X^.j.(.<X:X}.5XB.F q H /.A.].G.U.S.{.^.+Xk.I.x.N.C 4 j.A.R.Y.4X{.C.C.T.F. X2XwX=Xe U rXT.5X/.~.D.}. Xc.'.6XG.(.!.(.",
"1XS.Z.8Xd.}._.%XS.lX2X{.!.}.L.4 K 7XoXA.D.}.4XM.<X5Xc.A.z.A.+XF 4 g.z.}.T.S. XC.{.}.{.|.{.].G.I 5 Y.I.8XaX}.S.x.!.[. X8X(.k.g.;X",
"G.F.(.:XH.oX(.G.2X,X1X{.^._.K.w F kXrX X<X(.6X/.S.R.s.B.T.C.OXF I n.I.l.p.A.Q.Z.Z.F.|.B.z.}.tXS 0 G T.4X1XR.B.|.).B.s.^.).rX).:X",
"!./.rX2X2X!.F.G.V.C..XQ.z.pXF q =XpX>XlX2XI.}.T.k..XT.].{.z.P.2 P H OXz.c.rX^.F.Z.U.].C.S.{. XF.r I {.C.Z.{.I.C.P.Z.M.j.D.0XkX).",
"F.F.G.1X(.S.N.}.T.s.s.z.XX8X4 r fX X:XuX{.a.S.<X/. XT.B.Q.Q.XXH @Xg.P.{.A.pX(.N.4X*Xg.P.wX/.C.}.C w D A.z.{.~.].D.5X(.v.k.:XuXS.",
"}.wX;X>X(.<X{.V.qX%Xn.v.(.D w G -XT.T.7XB.P.}.T.F.F.M.C.d.A.F.OX~.x.<X6XZ.8XS.f.C.<XM.S.iX4Xc.P.A 9 C XXf.C.T./.1X(.E K.!.V.>XD.",
"`._.(.2X2X3X Xd.6XiX}.Z. XV r 4X*Xg.XXU.p.XXF.A.U.*XR.F.b.Z.S.].4XP.}.1XF.rXZ.{.f.uXoX/.7XD.|.[.C.K K &XL.L.N.5X2X<XE =X,X5X`.qX",
"Z.H.4XD.(.jX>XC.D. X!.z.L.r V z..X].P.n.!.3XC.A.(.}.9X<XF.E.U.G.8X/.S.<X^.{. XS.M./.|.<X<XR.aX}.tXU 0 &X[.P.2XdX/.1X<X/.qX X|.F.",
"V.F.{.B.`.8X<XM.}.T.f.x.B 0 H P.}.OXC.U.2X(.C.B.|.B.7XR.R.m.Y.{.G.5X5XrX^. XS.v.5XQ.z.*XwX X1X6X_.K.0 C OXA.|.}.!.iX}.N.;XB.{.F.",
"+X>XB.B.N.Z.D.G.wXT.s.XXB K Y.R.}.S.p.I.S.P.5XS.x.^.N./.3XJ D.rX'.D.:XqXpX2XB.k.wX].c.n.}.qX/. X{.V.K r *XA.{.N.}.aX<XT.(.S.D.2X",
").uX Xs.S.{.M.<X<XN.{.K.P C }.J &X{.s.B.V.s.N.}.k. XA.j.tXS.S.S.wXG.v.F.tX(.x.z.!.s.z.V.{.2X X X X+XZ P ^ G.v.P.<X:X{.x.5X/.B.+X",
"(.(.qXA.B. X/.wXT.T.F.J.2 F ).J.Y.oXZ.5XF.I.b.2X X(.A.d. XF.A.N.2XwXS.F.v.R.f.C.M.S.2X/. XF.D.6X5X~.S 5 @X}..X].tX}.f.I.F.`.x.W.",
"3XH._.qXS.N.Z.3Xb.2XyXk.p.N._..XQ._.9X2X(.z.R.wX_._. XA.v.<X}.:XuXeX!./.a.P.C./.:X~. XS.C.Z.v.4X(.D.Z.U.(.~.oX~.l.2Xf.z.Q.C.v.d."
};
