/* XPM */
static char *_01d72e27d9445509dac1b3e7287506cRWy8Jm4Tilr5fRwX[] = {
/* columns rows colors chars-per-pixel */
"48 48 53 1 ",
"  c #030402",
". c #070904",
"X c #0A0C06",
"o c #0C0F08",
"O c #0E1109",
"+ c #11150A",
"@ c #151A0D",
"# c #181E0F",
"$ c #191F10",
"% c #19200F",
"& c #1D2412",
"* c #202713",
"= c #232B16",
"- c #262F18",
"; c #273017",
": c #273018",
"> c #2B341A",
", c #2E391D",
"< c #313C1E",
"1 c #333F20",
"2 c #364221",
"3 c #394623",
"4 c #3D4A25",
"5 c #404E27",
"6 c #404F28",
"7 c #44542A",
"8 c #48572D",
"9 c #47582C",
"0 c #4A5B2E",
"q c #4D5F30",
"w c #4F6131",
"e c #526433",
"r c #566935",
"t c #596C37",
"y c #5A6E38",
"u c #5D723A",
"i c #61763C",
"p c #647A3E",
"a c #677E40",
"s c #687F41",
"d c #6B8343",
"f c #6F8845",
"g c #718B46",
"h c #748E49",
"j c #76914A",
"k c #7A954C",
"l c #7E9A4E",
"z c #7F9A51",
"x c #819E51",
"c c #84A252",
"v c #89A757",
"b c #89A659",
"n c #8CA95B",
/* pixels */
"44&>2%27:e7#6uf*4@3>3=>&3>uee26e#76,8y&3e=33, lk",
"32<u1Xu4u20e<y34773r<i237#u7e&4=6efw42<<i=uo3,<4",
"12q+44q7d=t6lp,@ry*69>Odpe,29u0&99pip<9=7=3>% w6",
"2>lea47r0psp#7,9xp<1=f6&=7>7<3&,6p+j4e<13u6.j49,",
"e>7>r<7t$*96=@e=<<i*=ei,o3,=1*>96<9p*pt3<g7lrq7&",
"2,o<w9&902@hh>l=y6p0<o=X4024:3 *#*94> <y&j&&,6=>",
".8=1*e<y4<9de2r27pp*4%=<=9O,07i3:&09ip3=+g2 &3u3",
"7e=O7r,r04w=+8<=320,i;4pt=g&3d6,4,:#pys$<4#qr,4@",
"9t2uip+re97>Op&p*we<43y3<,,t5@pe&@,6e1&e@*iy<w+<",
"07>>p;2:4k 23l&=@yq10e162eyx7.itq3 >xuu& o=&t<e@",
"=3e<49<<22ptu&g2=*3126,tw386w6p,,l6@=,8iy9 e@<p#",
"<@9&0g+ 7t<,w97s=6qh=71,369i57>2#<tO>t>p42r7Ot<+",
">e 462*i+ >#821,>op91y55$,@eeh+h84ph&4j7h7tph2Oy",
"q63697d2o&guu78*ye07>>$i<0,r+w;<64>e 146234q&4e,",
"3w,36d*py93&t33q*<pe22hr2xa@3@>i*7749e:<i<e3ep7@",
"=y#7&dip,<t,9e&=7p+<:$5@***p-3<x&2+f6tq#+l<<gd2j",
"@4p7<>3tdud9=,en8p0*h<#<e6y<069>pd &e9<y1h<0+573",
"&@e97&7>=6977o3&e2p>ty6Xd@36 d0,<#0ywd6 epi*de*<",
"&eo677iidpj6=<=d.o>yp++,>*=**3ro4<w6<0&:4iqkiXae",
"66,<u17<r#,77,3kp@ey.=g,2i&3>77d20=4930q<#20:,8$",
"@sk*4X4,e>.a=d&++f7 r<<@i30d,229k6k:e+g;6<,it@26",
"1,*3*d3#7*y6yj17:ht6 7#2<2t,e4f*>4p>2>*==r> @@@1",
"stsXi47=ul>>de,+9<607%<:>3337x<x<u&i<4uue8a<t74-",
"O6w,2=ee0up4,O%ko%,@0e&27<,%2;i2pig3pei4eoy,eu<9",
"**7gu>;984:e8r2#7=<67683@s>392,4&*r==7;=<8we@<y,",
"33@@09%+fe@>8>,>*i*p<qe8973w.7g*3<t=ep,o@t0=i7-t",
"O0ord5<yb 33yw4 &3,@63<y1,,0t<f5,,3#y*6u*,>=hqt8",
"oqf4+,97&*7jzdfr =<7w8-u,>+2+<s0tp41=d>=>j,4h+;4",
"p4+21w%8X3Oa3i*6e<4&e<>rj3osp*17&#e4;7,ue0e0992k",
"O,6t0ypd,3t<,1X9<u%p<lawgg0s2qX*Xppuyfp,*t@e<563",
"dd@7O&<p>tO=81eh>6=lh=e8<+, y722=@4i27eet+6:;5j9",
",*y76Xy*ety7tz3i9=#0=6=e4031$15577==p<7t3ly:662O",
".=jOO4<7t2:7y0ye1=9e 1@X4r6%k,46qu3e7<lr:k,>#*u2",
" p<p466u42e&rey7hi;30trre*<,>cp2&%u<ouOd:;rp<.4y",
">6h8r++t7>3d*y47ququd77190p#4p14eup*;%#&yh6;pwct",
"=y2*ade7kzh,ld#r2deOu0rwy4kj#p,yp:jf&14e&sp<e,O=",
",1.<s>tes4hlf>2X4X;uX11r#7#op97r**@ &f=y=,d=u@9q",
"+d,6y*d<y,p2wyx,g;d=e%ikjr,#:x:<lwrueo0*2>;7<it&",
"<ue6i>e>4x&i8:k,*rus,9:p4@e9<*,92o4e+647 &4@0xt+",
"tj,2>53= 7f:tyi&i>h354%0%<%>3@,y979r0ppu=47rp6,w",
"<0e<,0w37e73d0#&pu4ul9%e87>8o&q92+1=<1=uyz,kg945",
"p>o73ry0n<>,;&ky4e20*=dtg>4ey79,4:>e47%<elre@<s3",
"<Orfe#76=y277l2u35*r>2%u==<@09e7e:==<*91<&&=su=3",
"7994>>w<0gd4<r&2*k@=Oup=3tl>p7u9&03d,j#qbor3=2=.",
"<@u=y7=3=2e<<pidw=v6u47d=2=#+%;4,&p<+7pde3&yt0et",
"d7ir<29r@4@#y=26<qd0>reO8o76*%7ow<62<&>:@@+i,>yt",
"= <94r420<,7e<0*w7:@22<6,1<,;69<:*e*h3 *<<@Xi,=*",
"4+40<8>u4uuf3<p=955=3%4440&>e=y1iO<u1,<9=,*0e**e"
};
