/* XPM */
static char *cfa1dfb0f31e4be8d0921b358919c8caft7KIYJifT0WGPy0[] = {
/* columns rows colors chars-per-pixel */
"48 48 239 2 ",
"   c #1E0D1E",
".  c #1F101F",
"X  c #38030E",
"o  c #290718",
"O  c #220D1D",
"+  c #2A0C1D",
"@  c #330C1B",
"#  c #380D19",
"$  c #2B111E",
"%  c #38111D",
"&  c #1E0D21",
"*  c #220E21",
"=  c #2C0E22",
"-  c #340E21",
";  c #241123",
":  c #2C1123",
">  c #25172A",
",  c #331223",
"<  c #391223",
"1  c #381729",
"2  c #351E31",
"3  c #2F2233",
"4  c #3B2738",
"5  c #460A1D",
"6  c #421219",
"7  c #551318",
"8  c #742415",
"9  c #490F21",
"0  c #5B0A21",
"q  c #441828",
"w  c #5B192A",
"e  c #68192C",
"r  c #74192E",
"t  c #4A272B",
"y  c #57242A",
"u  c #57352D",
"i  c #5B362E",
"p  c #492837",
"a  c #562B37",
"s  c #593436",
"d  c #6B2C2C",
"f  c #643D34",
"g  c #673A3C",
"h  c #743A38",
"j  c #6B423B",
"k  c #75453E",
"l  c #492E41",
"z  c #473647",
"x  c #5B3642",
"c  c #583747",
"v  c #5D3A45",
"b  c #553F52",
"n  c #7D2E43",
"m  c #633B44",
"M  c #663B48",
"N  c #793A46",
"B  c #554557",
"V  c #65424D",
"C  c #6D474B",
"Z  c #6B444D",
"A  c #754748",
"S  c #7A4C4C",
"D  c #7F504C",
"F  c #6B4651",
"G  c #6A4856",
"H  c #6D4A54",
"J  c #744653",
"K  c #7C4756",
"L  c #744A53",
"P  c #7B4D52",
"I  c #734C5A",
"U  c #7B5157",
"Y  c #5D5564",
"T  c #625665",
"R  c #645969",
"E  c #795767",
"W  c #795F73",
"Q  c #7E6175",
"!  c #832811",
"~  c #8A1925",
"^  c #851D32",
"/  c #8A3332",
"(  c #A92837",
")  c #AC363B",
"_  c #8A4834",
"`  c #9B473A",
"'  c #A84A37",
"]  c #863748",
"[  c #95364C",
"{  c #AF374B",
"}  c #C53B4F",
"|  c #C93A56",
" . c #C83C60",
".. c #864B4A",
"X. c #964F45",
"o. c #87524A",
"O. c #824956",
"+. c #835453",
"@. c #84545A",
"#. c #885659",
"$. c #8C5B5B",
"%. c #9A5A57",
"&. c #925D5C",
"*. c #AA5746",
"=. c #B05754",
"-. c #97615D",
";. c #B46857",
":. c #B86B5C",
">. c #895A67",
",. c #965E64",
"<. c #AB4F66",
"1. c #B85266",
"2. c #8D6168",
"3. c #9A6464",
"4. c #93636B",
"5. c #976668",
"6. c #9B666D",
"7. c #916874",
"8. c #9C6B73",
"9. c #986875",
"0. c #A76866",
"q. c #A46B6C",
"w. c #AB6D6D",
"e. c #B76A66",
"r. c #BB6D63",
"t. c #B36E6C",
"y. c #AC726E",
"u. c #B3736D",
"i. c #BA7368",
"p. c #A46D72",
"a. c #A96E72",
"s. c #A76B78",
"d. c #B56A78",
"f. c #A57275",
"g. c #AD7372",
"h. c #A5747A",
"j. c #AB7579",
"k. c #AC787D",
"l. c #B27574",
"z. c #B47974",
"x. c #B27679",
"c. c #B97979",
"v. c #C74256",
"b. c #D8445B",
"n. c #CB555E",
"m. c #D3555D",
"M. c #D9505D",
"N. c #C56F59",
"B. c #DA4B6A",
"V. c #CA5865",
"C. c #D45662",
"Z. c #D75967",
"A. c #D14F70",
"S. c #DA5272",
"D. c #E24D6B",
"F. c #E25969",
"G. c #E34A72",
"H. c #E65976",
"J. c #C76867",
"K. c #D6646A",
"L. c #C77466",
"P. c #D16C73",
"I. c #C67777",
"U. c #DB7774",
"Y. c #EB6676",
"T. c #E66B74",
"R. c #F46D7D",
"E. c #BB817A",
"W. c #DA825A",
"Q. c #C68279",
"!. c #D68372",
"~. c #EB8C68",
"^. c #EA8E74",
"/. c #FB9A78",
"(. c #FFA37E",
"). c #8F7687",
"_. c #A56D83",
"`. c #A67784",
"'. c #CE738A",
"]. c #E76587",
"[. c #EF6E87",
"{. c #ED678D",
"}. c #FC768A",
"|. c #E57898",
" X c #FB7997",
".X c #9D8295",
"XX c #B7848A",
"oX c #A58292",
"OX c #AA8695",
"+X c #B78794",
"@X c #AD92A7",
"#X c #D88A85",
"$X c #CC988D",
"%X c #D8948D",
"&X c #D28C93",
"*X c #EA9685",
"=X c #EF928D",
"-X c #FC869B",
";X c #FFA986",
":X c #FFB18D",
">X c #E2A19E",
",X c #FAA898",
"<X c #FEAD9D",
"1X c #FFB494",
"2X c #FFB896",
"3X c #FFB69B",
"4X c #FFB99C",
"5X c #CF9EAB",
"6X c #EB8CA8",
"7X c #FE86A5",
"8X c #FE8CAA",
"9X c #FF94AC",
"0X c #FF98AA",
"qX c #FF8DB3",
"wX c #FF92B5",
"eX c #FB98B2",
"rX c #FF93B9",
"tX c #FF9BBC",
"yX c #D9A8B7",
"uX c #FBA7A7",
"iX c #FFB4A2",
"pX c #FFBAA2",
"aX c #FDB2A8",
"sX c #FFBBAB",
"dX c #E5ACB7",
"fX c #FFA4B8",
"gX c #FBB8B7",
"hX c #FFC0AA",
"jX c #FFC5B7",
"kX c #FF9DC0",
"lX c #FFACC9",
"zX c #FEB7C7",
"xX c #FCC2CB",
"cX c #FECAD4",
"vX c #FFC2D8",
"bX c #FECCDB",
"nX c #FFD1DE",
"mX c #FFCDE1",
"MX c #FFD1E2",
/* pixels */
"$X$X%XL.K.) ~ ^ ~ r 0.9 1 p : T R Y z Y > p ; z Y R O : : , 5 <.1.n.U.#Xi.J.:.#Xw.%XJ.K.K.J.%X%X",
"$X$XXX*X=XV.Z./ ^ 9 - ; 4 z R Y B > > Y & 2 & & . ; .   * = $ O + # w <.=.'.0.$XI.Z.F.K.K.[.U.T.",
"$X$X$X%XJ.Z.Z.J.9 ; & > b T Y 3 & > & * & &     . .     * O O ; * ; + # 2.E.#XK.T.M.Z.Y.Y.Y.R.T.",
"V.I.%X%X#XP.V.w > & & 4 Y R R * ; & & & & O     t u t t # @ + : : ;   2 % 3.K.V.( F.Y.Y.R.R.1.uX",
"m.m.C.C.C.V.] - > & Y Y R 4 . . ; & . & & & $ s u i i :.N.W.!.h q 1 > W 3 - e { Y.R.R.R.( 0X=X{ ",
"n.m.C.n.C.V.9 * Y Y > . B . . . & * . 1 t s u i i i i W.W.~.~.~.^.8 q B ).).p r }.F.=.-XuX{ | b.",
"~ ~ { n.n.n = z B B . O B   . . = t u u i i i i j j h ' ~.~.~./.(.(.*X9 q B ).l 7 =.fXfXv.b.b.b.",
"C.v.~ ~ e - z Y l . . O z 4 s u i i i i i j j j j k k _ /././.(.(.(.(.1Xw 4 .X@Xx y eX{ M.|  XzX",
"V.n.V.V.9 z T R * * o p C u i f f f j j j j A D _ _ _ o.(.(.(.(.;X(.;X:Xc.t l W oXp w 9XeXxXcXA.",
"n.( ~ 1.9 1 * * * = i s U j j j A k A D D D D o.+.$.$.%.^.(.(.:X:X:X:X2XI.p Q @X@Xp p xXbXP.S.{.",
"m.Z.n.^ - - l   $ s g g U S S S S D +.+.+.$.$.$.-.-.-.-.;.:X2X:X:X1X2X!.y p p @X@XW a n A.D. XrX",
"Z.Z.K.S.9 * 4 & u C k A 7.U D D U $.$.$.-.-.5.3.-.5.q.;.:X:X:X2X1X1X2X2XhXw.a 4 @XB p e D.7X9X9X",
"F.Y.Y.].7 = 2 = C S D D h.$.$.$.-.-.-.5.3.3.3.0.q.w.w.r.2X2XhX3XX.7 X.,XsXsX=.a ).@Xz e B.D.S.fX",
"{ b.S.H.0 = o p u +.$.$.h.2.-.-.-.5.q.0.0.0.y.y.w.f.y @ % % % + % < % # # i.pX=Xw @Xb e Z.].vXnX",
"( R.}.F.e - o x s $.$.5.E.5.8.q.q.q.q.q.y.y.c.y.x.% , , @ F L 4.f.p.+.P q.i.:.3XuXa E w cXzXfXvX",
"} } } }.'.- = x f $.5.5.XXq.q.q.q.f.f.E.g.y.#X#X3.5 < F m U 9.f.8.>...-.l.u.L.4XpX'.l d 0X9X0X0X",
"-X7X7X8X|.< , c m 5.q.q.XXs.j.t $ + + # q.g.l.l.l.y.P L P 6 5X% % 6 9.X 7 0.4X4X4XjXa d 8X7XB.D.",
"}.}.7X XqXq = , % 6.q.q.&X< = = $ $ % % @.g.g.g.l.g.x.x.l.zXbX@.N gXgXc.z.L.4X4X4XsXd w ;.T.M.8X",
"D.B.| | <.9 = = # p.9.@ .X: = G I v 1 t x y g.y.i.,Xd.x.x.#.P 6.x.l.l.sXpX4X4X4X4XhXd ;.4XN.n.,X",
"8X9XqX X1.q = = 1 7.@ O oXI V H - 7.yXp a a h l.:.pX,Xc.c.x.c.x.x.x.l.u.*X4X4X4X4X4X` Q._ z.i.^.",
" X X{ ] K = = * : p = G OXI + < # vXbX5XU m f y.i.4XpXQ.c.z.x.x.x.x.x.z.u.L.4X4X2X4XhX/ / d u.L.",
"I.c.j.l.>.p : ; + s G W oX% 5XyX%.`.g.f.L U +.y.r.4X4XhXI.l.z.x.x.j.x.x.z.u.r.4X4X2XhX8 !.E.u.L.",
"g.g.g.z.h.U p ; = c F G oXI >.+.g.g.j.j.L L y.y.u.pX4XhXhXz.z.j.x.z.l.z.g.z.i.2X2X2X4X! hXo.%.` ",
"l.z.g.g.h.7.U : + G G G oXI 4.f.g.g.g.j.L U f.o.y.y.i.hXsXz.z.z.z.j.l.z.g.y.u.;X4X2X4X! %Xo.i.` ",
"l.l.g.l.y.k.U c , b F F oX`.f.l.g.g.g.4.L P q.&.y.j.&.w.c.u.l.g.l.l.y.l.y.l.u.L.3X3X3X;XpXd *.=X",
"l.l.g.g.j.U U I < o F F 7.XXk.g.g.g.g.q.L L p.u @.@.L A y.y.y.l.g.g.l.y.z.y.y.N.3X2X3X1X3X/ L.=X",
"l.l.g.g.P P I S &X,.L H 7.XXj.g.z.g.g.l.U L C a V H C U g.y.y.l.l.u.l.y.y.y.g.:.3X2X3X:X:X4XpXU.",
"u.g.k.V v t C j t.z.h J F OXf.f.g.g.g.g.g.f.8.@.L s g 8.q.g.g.g.g.y.y.l.y.g.g.i.iX3X3X2X3X4XpXcX",
"g.0.p.f.f.6.S z.l...g F L oX7.f.g.y.g.g.l.g.g.g.6.U 2.,.@.@.q.f.q.y.w.g.a.g.a.i.pX4X3X2X3X,XgXnX",
"a.g.g.l.g.g.+.>X..g.s.L I oXL p.f.y.g.g.g.g.g.g.,.@.P N j.j.h.g.g.g.a.g.g.g.g.r.iX4X3X3X3XU.cXzX",
"g.w.g.l.g.l.g.%.0.h P s s oXH @.8.y.f.y.g.g.l.a.+.g.x.a.l.a.g.l.g.g.l.g.l.t.g.i.3X3X3X:X3XsXn.H.",
"p.g.w.l.a.l.l.%.>X0.h.L `.oXH L U 8.f.g.g.g.f.$.g.h.,.#.#.@.P p.p.w.w.w.w.a.e.*X3X3X3X^.3X<X( | ",
"U p.f.g.j.g.l.g.#.] '.S E oXG I L @.p.f.g.a.g.g.2.U L L G J A q.a.a.y.g.a.t.!.3X3X3X3X:X3X4Xm.F.",
"P J J I G @.s.g.f.S h dX3.+XM L H H @.f.p.f.g.f.L H H L 6.p.d.a.a.g.g.a.t.*X3X3X4X4X4X3X,X4X,XB.",
"] K O.K K L J >.8.L L N 5X+X`.H H L L >.q.f.f.f.p.P P f.g.q.a.g.g.w.g.u.L.4X4X4X4XsXL.iX=.3X3XM.",
"G.S.S.{ r ..K J L H H J @.+X_.m H H H J >.q.g.a.p.p.$.a.g.a.y.w.y.y.t.U.3X3X4X4XpXi.i.iX' 4XiX) ",
"kXkXtXfXkXfX|.] N I K K `.+XG E l M I G Z 9.p.s.p.f.K p.3.q.p.a.a.y.U.pX4X4XpX%Xy.u.i.aX=.2X3XuX",
" X X X X X X XH.].S.A.[ &X`.O.N E N M G V L p.s.f.a F 8.S &.s.a.w.t.aX3XsX#Xc.3.p.y.e.aX=.2X3X3X",
"bXnXMXnXbXlXtXtXrXrXkXrXkXkXrX].[ r N F H Z 9.s.4.m s 2.8.6.q.s.p.w.u.c.y.f.#.p.a.a.0.#Xr.3X3XiX",
"MXnXMXMXmXlXrXtXkXrXrXrXqX|.|. .|  .r m m J M 4.F m M v >.>.6.,.8.8.4.U H A s.a.a.a.0.X.J.iX3X3X",
"mXlXkXkX XS.G.G.G.G.G.|.|.6XqXtX .G.S._.m M x M Z V V a p s a V V V F M M q.a.p.a.a.q...:.3X3X3X",
"A.G.]. XqXqXqXrX{.{.qXrX|.|. X].|.qXqX[ N x x M p B V V V V Z V V L #XaX=.a.a.s.a.s.0.e.J.1X3X3X",
"rXqXrXqXrX7X8XrXrX{. XrXrX XA.'.mXvX6X .s.M x M V V V p v Z x x Z _ ,XiXiX!.w.a.a.a.,.0.!.1X3X3X",
"rXqXqXrXrXrXrXrXrXrXrXrXrXrXqX'.<.vXmXdX4.M M x c s v v v V V Z V ] uXiXiXpXsX:.e.w.%.0.uX3X2X3X",
"aXaXU.T.-X-X9XwXwXrXqXqXrXrXrX .].'._.mXmX>.M M c x x x m M C A k h 8 ;.L.iXsXiXaX:.X.e.aX2X3X3X",
"3X3X4X4XpX4X4X4X4XhX-X-XrXqXrXrXrXd.>._.`.MXmXM v a g >XgXjXjXpXpX1X3X1XpX,X*.X.X.*.=XL.iX3X3X3X",
"3X4X4X4X4X4XpXsXQ.y.q.p.d.[ qX<._.s._.N M 7.yXmX5X`.dX%.t.u.t.t.e.e.,X3X3XpXpX3XiX3X3X3XiX^.^.r.",
"3X4X4X4X4XiXu.a.K A J F a ,.9.9.9.I G b M c >.9.dXxXc.d.d.t.l.t.0.0.t.0.r.r.*XiXaX3X' 1X3X3X/ *."
};
