/* XPM */
static char *_2b5714cd8e34151c841141efacecf13GGLyPxeoW8gYTPEo[] = {
/* columns rows colors chars-per-pixel */
"64 64 252 2 ",
"   c #35790A",
".  c #2F6E0A",
"X  c #037F00",
"o  c #4A7818",
"O  c #6A711B",
"+  c #776524",
"@  c #F82A2D",
"#  c #F6272A",
"$  c #FB2E32",
"%  c #F52F30",
"&  c #F93335",
"*  c #FA363B",
"=  c #FA3C3D",
"-  c #F43739",
";  c #EC3032",
":  c #F81118",
">  c #AE512F",
",  c #93772E",
"<  c #A46034",
"1  c #D1493A",
"2  c #FA423F",
"3  c #FA3D42",
"4  c #F83E44",
"5  c #EE3E41",
"6  c #A57745",
"7  c #EA494B",
"8  c #F94345",
"9  c #F9454A",
"0  c #FA4A4D",
"q  c #F44648",
"w  c #F94E51",
"e  c #F24D52",
"r  c #F45254",
"t  c #FA5254",
"y  c #FA5B56",
"u  c #F95459",
"i  c #F55A5D",
"p  c #FB5A5D",
"a  c #F45759",
"s  c #EF524F",
"d  c #D06852",
"f  c #F9635E",
"g  c #F8655D",
"h  c #EC6159",
"j  c #FB5D62",
"k  c #F35D62",
"l  c #E65F64",
"z  c #D77A69",
"x  c #E9646A",
"c  c #FB6265",
"v  c #F96B64",
"b  c #FA656B",
"n  c #FB6A6D",
"m  c #F46569",
"M  c #F9766B",
"N  c #EB6C72",
"B  c #FA6D73",
"V  c #F86C73",
"C  c #FA7275",
"Z  c #FB747B",
"A  c #FB797E",
"S  c #F77877",
"D  c #E87770",
"F  c #D25947",
"G  c #0C8402",
"H  c #0C8B02",
"J  c #038C01",
"K  c #148C03",
"L  c #1B8C05",
"P  c #1D8D09",
"I  c #158704",
"U  c #0C9602",
"Y  c #149204",
"T  c #1C9305",
"R  c #139A05",
"E  c #1C9B05",
"W  c #1D940A",
"Q  c #1D9A0B",
"!  c #149608",
"~  c #1E9512",
"^  c #238D05",
"/  c #238E08",
"(  c #288909",
")  c #388C0D",
"_  c #239405",
"`  c #2A9406",
"'  c #249A06",
"]  c #2B9B06",
"[  c #24940A",
"{  c #2B950B",
"}  c #249B0B",
"|  c #2C9C0B",
" . c #349B06",
".. c #32960B",
"X. c #339C0C",
"o. c #3B9D0D",
"O. c #369509",
"+. c #3A8717",
"@. c #2B9712",
"#. c #349510",
"$. c #339C11",
"%. c #3B9D11",
"&. c #3B9815",
"*. c #288D10",
"=. c #1DA308",
"-. c #23A406",
";. c #2DA206",
":. c #25A30B",
">. c #2CA30B",
",. c #2CAA0D",
"<. c #22AC0C",
"1. c #34A30C",
"2. c #3BA30D",
"3. c #34AB0D",
"4. c #3BAA0D",
"5. c #37A506",
"6. c #3BB10D",
"7. c #35B20C",
"8. c #2CA211",
"9. c #2AAB10",
"0. c #34A412",
"q. c #3CA412",
"w. c #35AB12",
"e. c #3CAB12",
"r. c #3CAC19",
"t. c #3CB213",
"y. c #38B314",
"u. c #3C9326",
"i. c #43990E",
"p. c #4A8B15",
"a. c #439C13",
"s. c #499717",
"d. c #569519",
"f. c #5A8617",
"g. c #43A40E",
"h. c #43AA0E",
"j. c #4AAB0E",
"k. c #4AA40F",
"l. c #4CB30E",
"z. c #43B30D",
"x. c #43A413",
"c. c #4BA512",
"v. c #43AB13",
"b. c #4BAC14",
"n. c #43AB18",
"m. c #4BAD1A",
"M. c #45A61A",
"N. c #52AC13",
"B. c #54AD19",
"V. c #53A417",
"C. c #44B313",
"Z. c #4CB314",
"A. c #4BBB15",
"S. c #44B31A",
"D. c #4BB419",
"F. c #48BA18",
"G. c #52B315",
"H. c #5ABB1C",
"J. c #56B718",
"K. c #50B70F",
"L. c #64BD1D",
"P. c #489A28",
"I. c #589328",
"U. c #4F912C",
"Y. c #699637",
"T. c #6B9133",
"R. c #5FA837",
"E. c #57C31B",
"W. c #5EC522",
"Q. c #65CA1F",
"!. c #749843",
"~. c #6CA64D",
"^. c #59A343",
"/. c #979757",
"(. c #998A51",
"). c #999C63",
"_. c #B0976F",
"`. c #96AE74",
"'. c #A9A66D",
"]. c #A49958",
"[. c #C99172",
"{. c #F88778",
"}. c #FB927F",
"|. c #CBA37A",
" X c #F67D83",
".X c #FA7C82",
"XX c #B7B18A",
"oX c #BDAC8F",
"OX c #9FBA84",
"+X c #E98687",
"@X c #FA8186",
"#X c #FB848B",
"$X c #FB898E",
"%X c #F58889",
"&X c #FB9483",
"*X c #FA9B87",
"=X c #FB8C93",
"-X c #F98C94",
";X c #FB9294",
":X c #F6949A",
">X c #FB949B",
",X c #FB9A9E",
"<X c #F69598",
"1X c #EE968F",
"2X c #D4AA8D",
"3X c #FEA58D",
"4X c #E6AA93",
"5X c #F5AD94",
"6X c #FBAC9B",
"7X c #FBA697",
"8X c #F5B49A",
"9X c #FBB49D",
"0X c #F7B59A",
"qX c #E8B197",
"wX c #FC9CA3",
"eX c #FC9DA9",
"rX c #F898A1",
"tX c #FBA1A6",
"yX c #FCA4AB",
"uX c #FBABAD",
"iX c #F6A7A9",
"pX c #FBB9A7",
"aX c #FCACB3",
"sX c #FBAAB4",
"dX c #FBB2B4",
"fX c #FBB4BB",
"gX c #FCBABD",
"hX c #FAB8B8",
"jX c #EAB3A8",
"kX c #C59184",
"lX c #B4C695",
"zX c #C5CCA8",
"xX c #D6CDB6",
"cX c #FDC3AC",
"vX c #FDC7B8",
"bX c #FDD2BE",
"nX c #FCBDC3",
"mX c #FFB4C1",
"MX c #FCC3C4",
"NX c #FCC4CA",
"BX c #FCC9CC",
"VX c #FDCAC4",
"CX c #FDD3CD",
"ZX c #FEDACC",
"AX c #FEDCD4",
"SX c #FDD6D2",
"DX c #EDCEC7",
"FX c #FDE5DD",
"GX c #FDE5DA",
"HX c #FEEBE3",
"JX c #FFEDEA",
"KX c #FEF1EB",
/* pixels */
"J.G._ ] 7.@.. x.1.1.4.T L w.5.Z.2...v.2.2.} 3.C.| 1._ 1.1...%.h.a.Z.' e.:.-.l.b.b.] ] } T _ ..G.h.q.2.( *.T >.] T _ X.X.8.T [ | ",
"h.h.0.@.{ ` ) x.] L | } P ] w.1.>.} ] >.v.| _ { { X...` e.2...X.a.h.` b.w.:.Z.0...0.>.T 0.q.X.b.o.1.q.p.{ E X.` ..[ L 0.} T _ L ",
"S.-.,.Y / e.4.4.X.H { q.$.1.>.L T Q [ ] g...L @.[ v.v...1.2.X._ ..X.o.e. .%.x.E Q H Q { x.] 3.0.0._ ..D.c.o.0.v.q.8.G [ T [ P L ",
"b.] ,.K ` v.| i...R v.v.n.2.w.T :.K [ { g.$.E ,.3.[ $.{ [ n.] _ 4.| q.T 0.` X.t.} K P { q.H 4.x.| X.} 4.J.2.5.h.4.] [ 0.K $.q.{ ",
"2.b.Z.] e...{ B. .K 0.H.2.` q.1.>.L 1.L | ] E >.3.T #.^ K 2.q.T 0.] q.T Z.Z.1.A.^ w.>.3.4.Y 3.b.T t.>.| m.] _ F.C.Q >.} W | x.o.",
",.X.v.| [ ] 3.G.g.0.2.Q.>.L o.&.x.L e...[ ] 3.1..._ x.o.t.v.0.L [ X.X.L N.Q.Z.k.x.A.3.>.1.E ' v.w.3.c.$.%.} L B.[ K v.] K >.y.>.",
"=.} ..0.T w.4.c.b...v.h.X.x.b._ 0.[ ] 4.[ ] A.b.x.[ v.H.Z.2.| 8.] 1.q.X.q.b.v.g.1.A.C._ T L [ { 4.;.4.p.p.>.| c.>.] v.2._ ,.3.] ",
"E r._ 4.C.y.1.o.o.0.4.2.X.i.b./ e.>.} 6.L 0.2.g.v.} 2.J.D.` Y E 4.v.q.h.>...1.` >.Z.b.x.X.0.3.1.g.e. .  s.2...l.6.3.>.b.x.Q | 1.",
"{ 2.4.7.E.z.x.1.] v.v.1.e.0.q.e.{ ` 0.4.` { X.b. .Q X.4.b...W | :.C.v.w.W ` 0.6.t.T 2.b.J.b.w.A.J.q.O.$.x.g.` 2.2._ R C.x._ h.2.",
"b.>.Q _ o.v.%.q.] v.x.] e.] e.7.>.X.2...x.b.X.e.L K 0.q.N...} x.` D.2.>.' X. .Z.D.W ` a.V.V.{ ] h.2.%.| o.e.} ' q.2.Y { b.w.A.5.",
"7.{ I Q { %...q.X.] 2...x.%.x.1.P / 2.g.C.A._ { X.' v.2.c.$.} C.g.a.I.~.`.lXlXlXzXzXzXxXxXxXzXOX^.#._ { o.T J T e.Z.e...c.3.>.| ",
",.X.m.4.2.o.] q.{ ,.6.2.A.C.j.2.P ( a.v.5.b.K R e.1.>.q.1.E P I./.[.+XrXyXNXJXKXKXKXJXJXHXHXKXJXDXlXu.L >.L G I b.N.b.G.k.q.I [ ",
"8.1.G.j...x.v...G S.4.v.1.>.1.q.x.Z.x.1.5.g.>.9.W { L Y { Y.kXrXeXeXrX>X>X=XwXAXHXFXFXFXFXHXFXdX>XyXhX~.>.} W | g.h.x.x.q.2.} T ",
"..x.c.b.X.] 2.%...2.o.0.1._ [ >.3.1.X.v.F.e.` T [ v.| U.oXiXaXaXsXyXtXwXwXwX-XgXHXHXHXFXAXHXgX=X=X$X=X4XP.Y T t.h.2.] _ a.o.=.} ",
"q.e.n.1.1.v.| a.O.@.0.] >.8.W 3.7.L ..v.1.%...{  .D.`.fXfXfXfXfXfXfXaXsXeXrXrXwXCXHXHXgXBXCX=X$X#X$X@X=X`.>.} 1.5.X.:.-.V.V.] >.",
"1.E ] ' T q.E 2.| . ) w.I W { 2.>.P n.2.` x.b.5.R.XXaXfXfXnXnXnXnXnXmXfXyXwXtXwXMXHXFXyXMXwX>X>X=X#X.X.XjX^._ 0.2.[ e.Z.N.V.1.>.",
"h.e.L x.{ q.w.t.x.p.` b./ L 0.k.` L | 1.,.E.l.| oXaXdXnXNXNXNXNXNXnXnXfXaXyXyXwXnXKXBXaXMX,XtXwXrX>X.XZ eX`.>.q.{ L q.G.C.1.Q >.",
"4.x.{ k.{ 2.3.1.b.x.;.d.X.} 8._ 0.q.Q | | 5.M.oXaXiXMXNXNXBXBXBXBXNXNXnXfXaXsXwXnXHXaXMXgXeXyXyXtXwX=X.X=X2Xr.1.5.0.` | x.| K $.",
"W 2.N.b.| 1.w.[ ) o.{ a./ W K H e.h.I o.{ { `.mXdXfXNXBXBXBXBXBXBXNXNXnXfXfXyXwXBXBXaXCXaXsXaXaXyXeXwX$X@XiXP.4.5.C.q.Q 4.h.[ a.",
"` 1.g.v.T | ' ^ %.>.| 1._ [ e.6.z.h.G i._ ~.dXdXgXgXNXBXBXBXBXBXNXNXNXnXfXfXyXyXCXgXBXfXyXaXaXaXyXeXwX=X@XfX~._ [ ] q.] 1.Z.T | ",
"m.;.v.w.L S.w...0.-.e.e.S.] C.A.>.e.G  .P.2XaXfXnXnXNXBXBXBXBXNXNXNXNXfXfXfXtXgXCXMXBXeXyXaXsXyXtXeXrX$X;XAX'.^ 1.^ $.| Y q.K H ",
"H >.H.| 1.7.6.H.4.1.x.| | L ..1.K 8.T 1.XXaXaXgXnXnXNXNXBXBXNXNXNXnXnXfXfXaXyXMXgXCXdXsXyXyXsXyXtXwX>X$XVXKX2X) 3.x.T E ] q.[ L ",
"W K M./ } 6.4.j.2.2.x.' K 1.{ ] | | [ R.jXtXaXfXnXnXNXNXNXNXNXMXnXnXnXgXsXaXgXhXBXfXaXfXaXyXtXyXwXwX=XyXCXAXjXU.0.v.E <.3.q.1.S.",
"B.I ..' 1.v._ o.v.X.X.W Q W.[ >.1.;.u.xXyXtXaXfXnXnXMXNXNXNXMXnXfXnXnXaXuXMXMXAXgXyXaXsXyXyXrX,X>X-XyXVX@XuXjXY.] | | F.2. .0.g.",
"5.] / ] H.2.v.2.g.;.1.{ o.j.{ { 1.$.XXaX,XtXuXdXgXgXgXnXNXnXhXfXfXsXiXfXCXAXFXgXaXyXyXsXyXyXyXrX$X>XCX,XC 7XqXI.-.G ` b.2.| 0.o.",
"0.G.;.3.b.h.J.h.B.l.4.c.B.1.w.Y *.oXwX;X,XwXtXaXfXdXsXfXgXgXgXfXsXiXMXFXHXHXCXyXaXyXyXsXyXtXtX;X>XCXuXZ .XtX2X+.9.K W m.o.1.T Y ",
"X.b.v.D.o...h.g.i.h.` %.a.L -.u._.=X-X>X,X,XwXyXuXiXsXfXfXfXdXaXfXCXHXHXFXHXMXyXaXeXyXyXtXtX,X>XVXgX#XZ #XdX_.*.] | W { 2.5.,.9.",
"{ V.a.x...L ` x.J.C.E q.4.} ^.1X=X%X;X,XwXwXwX,X,XiXsXfXaXaXMXVXMXgXdXMXAXHXCXwXeXrXyXtXwX,XuXCXdX#X.XZ ;XpX/.H | ` S.X.2.H.4.5.",
"$.o.1.:.Y K X...G.2.T q.$.).1X$X;X,X:X:XwXwX:X-X:XyXaXdXMXMXhXtXrXwXwXwXyXSXFXdX-X,XrXrXuXMXvXtX#X@XZ A 6X9XT.Y X.4.A.Z.v.2.2. .",
"X.[ r.} W { D.3.5.q.Y u._.#X@X-X>X,X:X:XrXwX,X-X>XwXyXMXgXyXwXrXtXtXwXwX>XuXGXAXdXtXrXdXVXdX=X@X#X.XB ;XpXqXp.' { 4.e.k.v.x...[ ",
"o.] X.b.x._ >.0.;.e.T.z A .X#X-X>X-X:XrXwXtXtX,X>X,XgXuXwXtXtXrXwXwXwXwX,X=XuXGXGXZXCXuX$X X@X XZ C ;X0XpX|.1.<.! [ 4.l.b.q.[ W ",
"X.v.b.k.2.W T X.C.T.m n C @X$X=X-X;X,X,X,XrXwX,X>XhXuX=XwXwXwX:X:X,X,X,X>X=X;XCXAXAXAXtX X#X#X#X@X<XpX8X9X/.=.R W ` S.Z.H. .| [ ",
"0.2.c.2.1.} R =.!.m j V .X#X=X%X-X>X>X>X>X>X,X=XuXhX#X$X;X>X,X>X-X=X>X=X=X=X@XhXAXZXCXhXhXvXvXVXvXpX8X9X2XI.T X { 2.e. .N.k.{ / ",
"X.q.k.q.] { J P.D t c B .X@X+X+X=X>X;X=X=X;X=X-XuX;X#X#X#X=X=X-X=X=X$X=X=X#X.XdXGXvX;X@X=XdXZXbXpX8X8XpX].| K [ T ,.4.| 2.G.2.{ ",
"X.} e.>.1.2.~ [.0 7 k m N D D +X=X=X-X=X$X=X#X;X,X@X$X@X.X.X.X#X$X$X#X X X XV pXZX$XB .XZ ;XcX8X8X8XpX2Xd.>.X.c.l.y.;.} Q v.2.X.",
"q.L >.} X.o.(.t 5 r k x x N N  X=X$X$X#X#X@X@X7X@X@X#X@XA Z C A .X.X XA A Z m pXvXC Z A A 6X0X8X8X9X|.I.g.` X.k.F.-.v._ [ g.o.O.",
"h.T } P E I.y & 9 t j b x x x A #X.X.X.X.XZ #X7XZ .X@X.XZ V n V n m C Z Z V m vX6Xb Z b M 0X8X9X9X_...4.H.x.[ | } J w.1.e.5.3.2.",
"6.] W 0.T 6 $ - 8 0 t j k l N N Z Z Z Z C B 7XS C A A A C m c c k m n b n j V vX{.b c 0 }.pX9X2XY.M.j.4.Z.c...8.L K o.N.>.Y } 4.",
"1.1.1.X.P.z $ * 4 9 w u a k B x b B n n j A pXk V C Z C m c c j i j j c c u %XpXc u 0 v 9X8X).$.Y ] n.T b.k.{ | _ 1.j.Z._ L [ n.",
"{ ] r._ !.M @ * = 8 9 e e u p i i j c p C pX%Xi n n n m b b j u u p p p u k pX6Xt y f g [.Y.X.Q ] t.} K ,.3.T | t.] ..0.] ] 1.x.",
";.[ H [ /.{.# & * 3 8 q 0 w t t e 7 e n cXpXs i b c k c c j p r u u u u 9 {.bX7Xv c 9 + %.4.X.` v.3.3.| ! R G | A.:.L { ] w.[ X.",
"t.] H | 6 *X= @ & - - 8 9 9 9 0 g D &XpX6Xi 7 p i i j j p p t w w w w 9 i pXcX8XM 3 , ,.1.X.e.$.q.{ M.` [ H { 4.t.,.S.] 1.q.X.C.",
"G.v.K ,.6 &X}.@ # @ % * - 8 v &X&X{.7X7Xt q e r r u u u u t w e 0 0 4 t 7XvX3X*Xy 1 q.U C.w.1.X.k.x.a.` ..#.m.0.W y.B.` } q.o.A.",
"s.) ` >.Y.{.*X&Xv y y v M *X&Xv M &XM 8 8 q 7 q w w w w w 0 9 8 8 3 f pXvX*Xy {.r O Q ! 8.w.w.X.Z.[ ] >.e.g.1.x.) v.o.{ [ ..O.x.",
"1.x.%.2.@.|.v g *X3X3X*X*X}.M {.&Xf & * 3 5 q 0 0 0 0 0 0 9 4 - * y 9XcXcXv f n < ..{ 3.L [ q._ [ | 3.F.v.o.T >.v.w.{ } | s.&.v.",
"3.2.1.} H '.9X{.M {.{.M }.{.M 0 & @ & * = - 4 8 8 8 8 8 8 3 - ; r 6XcX9XM t M F s.6.w._ } 8.X.[ X.e.0.>.v.Z.] H 1.R Q Y 1.s.  q.",
"1.G.3.} K T.3X0X9X9X9X3Xg = # # % & % & - - = = = = = = = - # e 7XcX6Xv 3 g p O :.S.H } >.K #.x.Z.5.} L Z.4.X.1.| H H E C.' 0.c.",
"X.J.4.P >.s.d {.8X6X9XM : # @ @ @ @ $ % ; & & & & & & $ @ ; v 6XpX*Xt 3 0 C > G ..` L _ J.[ %.` b.} >.A.k.X.{ b.1.[ G ] C.5.1.9.",
"' 2.q.| w.2.O h 0X5X*X}.y & # # # # # # # @ @ @ @ $ = t v &X0X8X8Xg 3 4 p ].) / o.1.0.L b.q.{ [ { 0.{ b.J.e.L X.e.%.` { X.m.] | ",
"1.g.w.h.t.| ( O 1X&X3 0 S 5X}.v g y y 0 8 2 2 8 g }.5X0X8X&Xy {.8Xt * 4 z @.E v.b.2.1.0.2.2. .n.X.Y { g.Z..._ X.X.O.O...X.J.X.$.",
"H.g.' C.3...d./ P.[.0 3 3 S 8X*X5X8X8X8X5X5X5X5X8X5X*X5X}.8 * v 0X}.c d U.X.^ 1.0.o.` q.h.D.D.5.t.K 8.S.3.' q.v.e.{ o.2.w.J.h.4.",
"l.2.X.b.E X.B.>.U T.7 3 8 3 {.y g 8X8X8X8X0X5X0X{.0 8 g 5XM * v 0XpX4XI.` c.0.[ [ ..| 5.v.h.b. .q.q.8.2.1.>.] X.w.R t.b.o.2.>.2.",
"c.{ { B.L q.4.i...E.f.1 4 3 t M 0 {.5XM g M {.M S 9 3 3 c 7Xp i 4X].+.1...| 3.W 0.1.1.w.>.] X.b.O.o._ c.H.2.[ } >.<.4.b.2.T L 2.",
"o...2.2.] e.2.o.v.j.z.p.> - 9 M c n {.* 3 * p 0 C S 7 1 > (./., Y.L R E H _ } { { | 3.T W 2.D.2.2.O.{ x.c.X._ w.3._ K :.3.v.3.v.",
"| 1.S.S.v.>.X.2.} T w.=.E d., F 1 D D - q q s d < Y.p.{ >.H } 1.2._ r.Y ! C.] X.` $.| T [ 1.1.3.3.q.{ _ ^ 8.E T { { _ Y { B.E.3.",
"..X.o.c.2.| ` q.{ L Y L X.F.t.) d.p.f.O o .   a.>.,.| ' =.:.o.x.e.L | 0.} J.5.` e.&.I @.C.>._ 2.T ' T T W >.,.>...n.2.P L h.D.] ",
"2.m.k.k.g.x.0.[ C.i.( ^ 1...[ &.s.] X.q.E Q 0.X.X.../ [ K [ ..w.1.W q.c.` b.{ P [ 2.[ ] G.e.R ` [ G ` $.L _ | 1.k.2.o +.>.] j...",
"1.4.2.v.v.b.3.I v.J.q.{ 0._ ' S.O.L q...H 0...} X.a.o.X.^ { { 8.x.| q.c.] S.` $.L D.y.1.c.{ 3.=.[ } T ) [ / _ v.4.x.o i.z.e.1.Z.",
"|  .c...2.W.v.[ ..4.>.L $.| q.L e.>.{ ^ >.b.[ } 2.o.B.2.X.$...X.c.| ] x.:.1.q.| _ 1.w.x.g.o.L.1.v.Z.' V.} [ w.H.>.c.q.1.C.4.w.1.",
"] X.w.} >.b.x._ q.X.I K [ ^ $.[ 1.7.T ..h.2.[ _ w.' m.0.%.  #.1. .v.e.C.;.e.| ^ n.} T o.v.4.c.v.X.x._ r.3.' 3. .>.G.0.` g._ 0.X.",
"7.v.' } ` ` ..X.Z.1.I r.6.e.q.X.2.[ G } ] ] n.] =.>.] 1.x.  #.t.7...2.C.D.C.} T S.8.! _ 0.C.1.4.1.| q.[ v.T >.` 2.L.2.X.2.{ ..x.",
"3.Z.e.I | 0._ c.q.` | 9.;.D.X.. p.>.G T ' I { 0.T e.Q Y D.| } | v.X.^  .b.g.W ! >.I W [ X.v.2.2.e.-.q.2.b...L { g.4.q.T S.0.' 7.",
"2.2.D.} ' e.1.b.#.{ 1.E K x.>.( &.4.{ x.X.} / v.q.1.[ T e.X.} ` b.D.| | L X.W W _ [ v.1.4...] v.w.] { D.g.0.3.8.S.1.P Q X.1.Q =.",
"b. .4.C.>.` { v./ v.D.T H [ 3.y.:.3.N.v.3.P q.Z.4.4.4.} ^ x.q.b.K.Z.>.0.G { | X.v.,.e.] [ { _ x.o...{ 2.2.>.7.,._ v.L W } [ W L "
};
