/* XPM */
static char *_b2dd6b9c4a34039cdcdf667625ad174TVaLdWcNKscPuUO8[] = {
/* columns rows colors chars-per-pixel */
"48 48 25 1 ",
"  c #FFFFFF",
". c black",
"X c #070303",
"o c #070606",
"O c #7A3131",
"+ c #5F5658",
"@ c gray39",
"# c #746B6D",
"$ c #756B6D",
"% c gray44",
"& c gray46",
"* c #797979",
"= c gray49",
"- c #976255",
"; c #948A7E",
": c #848484",
"> c #868686",
", c gray53",
"< c #B0A986",
"1 c gray63",
"2 c #C9B0AC",
"3 c #CCB0AD",
"4 c #CCB1AD",
"5 c #D3C69D",
"6 c #D9D0A5",
/* pixels */
"                                              ,,",
"                                             ,,@",
"                                            ,,&@",
"                                           ,,,@@",
"                                          ,,,@@@",
"                                         ,,,@@@@",
"                                        ,,,@@@@@",
"                                       ,,,@@@@@@",
"                                      ,,,@@@@@@@",
"                                    ,,,%@@@@@@@=",
"                                   ,,,@@@@@@@@&,",
"                                  ,,,@@@@@@@@@,,",
"                                 ,,,@@@@@@@@@,, ",
"           . . .                 ,,@@@@@@@@@,,  ",
"        ...... .                ,,@@@@@@@@@,,,  ",
"       ........                ,,%@@@@@@@@,,,   ",
"       ..66666                ,,,@@@@@@@@,,,    ",
"       6.66666               ,,,@@@@@@@@,,,     ",
"       6666666              ,,,@@@@@@@@,,,      ",
"        666666             ,,,@@@@@@@@,,,       ",
"        666666            ,,,@@@@@@@@,,,        ",
"       ........          ,,,@@@@@@@@,,,         ",
"       ........          ,,@@@@@@@@,,,          ",
"       <6666$$OO$$        11111@@@,,,           ",
"      .<6666;;-O$$$$       1111@@=,,            ",
"     ..<66666665$$$$$#$   42111@,,              ",
"    ...<666666666666666$ 444  1,,               ",
"    ....$666666666666666644    ,,               ",
"    ....$$666666666666666$                      ",
"    ....$$$OO666666666666$                      ",
"   .....$$OOO$$$     444                        ",
"   .....$OOO$$$$     44                         ",
"   .....$OO$$$$$                                ",
"  ....XOOOOOOOOO                                ",
"  ....XOOOOOOOOO                                ",
"  ....XO$$OOOO$$                                ",
" .......$$$OO$$$                                ",
"........$$$OO$$$                                ",
"........$$$OO$$$                                ",
".......+$$$  $$$$                               ",
".......+$$    $$$                               ",
"......o$$$    $$$$                              ",
"......XOOO    OOOO                              ",
".... . OOO    OOOO                              ",
" .. .. OOO    OOOO                              ",
" ..    OOOO   OOOOO                             ",
"..     OOOOO  OOOOOO                            ",
"       OOOOO  OOOOOO                            "
};
