/* XPM */
static char *result[] = {
/* columns rows colors chars-per-pixel */
"48 48 126 2 ",
"   c #010101",
".  c #020202",
"X  c gray1",
"o  c #040404",
"O  c gray2",
"+  c #060606",
"@  c #070707",
"#  c gray3",
"$  c #090909",
"%  c gray4",
"&  c #0B0B0B",
"*  c #0C0C0C",
"=  c gray5",
"-  c #0E0E0E",
";  c gray6",
":  c #101010",
">  c #111111",
",  c gray7",
"<  c #131313",
"1  c gray8",
"2  c #151515",
"3  c #161616",
"4  c gray9",
"5  c #181818",
"6  c #191919",
"7  c gray10",
"8  c #1B1B1B",
"9  c gray11",
"0  c #1D1D1D",
"q  c #1E1E1E",
"w  c gray12",
"e  c #202020",
"r  c gray13",
"t  c #222222",
"y  c #232323",
"u  c gray14",
"i  c #252525",
"p  c gray15",
"a  c #272727",
"s  c #282828",
"d  c gray16",
"f  c #2A2A2A",
"g  c gray17",
"h  c #2C2C2C",
"j  c #2D2D2D",
"k  c gray18",
"l  c #2F2F2F",
"z  c gray19",
"x  c #313131",
"c  c #323232",
"v  c gray20",
"b  c #343434",
"n  c #353535",
"m  c gray21",
"M  c #373737",
"N  c gray22",
"B  c #393939",
"V  c #3A3A3A",
"C  c gray23",
"Z  c #3C3C3C",
"A  c gray24",
"S  c #3E3E3E",
"D  c #3F3F3F",
"F  c gray25",
"G  c #414141",
"H  c gray26",
"J  c #434343",
"K  c #444444",
"L  c gray27",
"P  c #464646",
"I  c gray28",
"U  c #484848",
"Y  c #494949",
"T  c gray29",
"R  c #4B4B4B",
"E  c #4C4C4C",
"W  c gray30",
"Q  c #4E4E4E",
"!  c gray31",
"~  c #505050",
"^  c #515151",
"/  c gray32",
"(  c #535353",
")  c gray33",
"_  c #555555",
"`  c #565656",
"'  c gray34",
"]  c #585858",
"[  c gray35",
"{  c #5A5A5A",
"}  c #5B5B5B",
"|  c gray36",
" . c #5D5D5D",
".. c gray37",
"X. c #5F5F5F",
"o. c #606060",
"O. c gray38",
"+. c #626262",
"@. c gray39",
"#. c #646464",
"$. c #656565",
"%. c gray40",
"&. c #676767",
"*. c #686868",
"=. c DimGray",
"-. c #6A6A6A",
";. c gray42",
":. c #6C6C6C",
">. c #6D6D6D",
",. c gray43",
"<. c #6F6F6F",
"1. c gray44",
"2. c #717171",
"3. c #727272",
"4. c gray45",
"5. c #747474",
"6. c gray46",
"7. c #767676",
"8. c gray47",
"9. c #797979",
"0. c gray48",
"q. c #7B7B7B",
"w. c gray50",
"e. c #818181",
"r. c #848484",
"t. c gray52",
/* pixels */
"k b L I ! V Z B R A T / ..&.' ~ I W 3 F N h a D X.x e 4 8 r  .+.E F m ~ Q N , a p z & L l A l V ",
"k s X.c K N ' =.d I T k W } ' ~ L _ a  .H W ) F z m 4 p > ` K J d D h F i W d x y 0 x z N j z a ",
"x J [ P J l :...j n E 1 Y G ^ Q i e # 3 2 _ k 4 3 0 ! z ..:.Q J d c R i * F N g m b U d B S T 9 ",
"l k c e `  .Y T A A ' t b  .U Y s O / m | ~ : 8 +.( ! z ^ R S N z n z G 5 m i V U P B v < w *   ",
"= V D Y J g K m g n z | F v n N M I L ` Y / H I >.:.Z / l | R Y M W H N b d j M t m z w y b l l ",
"D R m m g 4 v B A 6 X.( &.L } $ ` i F Y ) G I 1 9.[ A <.o q 6 @ o & 5 p N n l N c n u C h F v N ",
"m I c v P h L X.~ ` ] O./ Q 1.l D #...P ~ ~ #.! ] ..! s 1 0 & F M E ~ A d C u B l z e f 0 n C e ",
"M b G U M ) F h H } | o.| T J C U W ) X.F {  .J R C ( <._ I E V +.) W C p i N n P f 5 4 = u Y U ",
"L T C F C h J 3 ^ U T M N F ~ R v K X.G A H O.[ ( Q ( S ` ' m I I P A W S x N c k k h  .L H _ p ",
"h P j S ! x b e a H M ~ T c G 2 [ 3 - [ c r : # # m n b Q Z ` ] H I T W d i Y l u a ( N A K N c ",
"x H a Z E k < * A A l ^ Q y 8 U +.{ 9.d } Z c L I H L e S V K _ ) A / ~ S W k q 6 @.c V f n Y s ",
"G q Z a % f B N I H = V J  .+.m ` ( ( b Q H P ) R F f 0 ~ D T A L E } I u ] [ X.V B i y Z r s g ",
"R v h x Z b U m M V { S S ! [ i U G %.Q B M ] @.I S z x j p l Y x C F h # 7.{ q.I ,.7.l t N O 4 ",
"%.A D B ^ R V M z Y  .D D 9.Q ^ P <. .d ( W ` R / M j S A z N s m L S A G ,.o.>.5.:.X.*.Z r w y ",
"E b F U Q D Z m C f [ W ' r.e.x 8.I P O Z F V U C A q u P I j O q g a G  .! -.%.7.6.) B D ; c w ",
"K Z G U J W K E F N d A T _ E ) ) D t C ' a ~ L ] a F 0 W F E ,.J Z - # Z ] *.U o.M b K ; g i v ",
"9 s b b Q E A B G n ) ^ ~ r B U j n A S P O._ q m m b Z I %.4.[ T { *.:.e 1. .~ ' U P l h y z 0 ",
"A C M A I J | P E U ..J k l j  .V A I T W F I r 8 %.J t.} O.' B ~ B A K D $ w S H N G R C z n s ",
"Q 7 G 9 I K B +.f m c 8 p O.L E ^ Z c z K R l K h d ~ [ ] 2.| { S :.@.@.n / O./ ^ -.^ k k j g l ",
"I k M z l A m h N N e C F 0 L g x z J b V j g [ { &.S T T 0. .( / B ( @.n Q [ ] / Z J B V e g b ",
"L Q q w 6 x , 9 A J M { R &.H E d h T ^ Y & @.~ @.( ..g ( Q ! A } E | D :.#.H R  .G d Q n S k j ",
"S / m M P V G z z z c N C L F p p R L x Q | ) ! @.K 3.5 S d r 3 $ f B n A W A m u n X.s p 8 & N ",
"x j o x ( ' Y Z z / B s B J a Z T s / R Q 3.*.P L ;.m ( :.} ` / B z C P - s 7 Z C ~ I Z A l l S ",
"S f 6 e g b R N v 9 S 7 u j H , u z Y { ! H _ Z ~ T : H $.o.w.U H ! V A 8 f 7 r < f t g U S B N ",
"R | Z a m n z n t l j q i t x q 9 A [ _ ` S ` ~ n C X.+.N g E v O.~ w f b Z ( N 5 k n D g c c z ",
"! C e k h k j u c g a c G S A N L s ( X.V I S F A r 5.O.%.L a l J v y S B v Q t V P a l l n u b ",
"l : g x f d t x K q y P x G g S w G q x U %.-.Z e T c ^ h <.z *.e x D v / F C c b e t D y t c r ",
"m z w f a 9 N p > F 8 m v V n v B s A j p ~ 3 _ A 0 l - l y t q b v n l Z ~ z p V i 8 h j e q 5 ",
"x n u # - % * 0 s a F u z n I R D G c k b T I Y Z U n d N t 5 1 8 C > Z F r d M g q X m 2 h > = ",
"m g f 4 N f F l c d y m F ! Y K D S L u B c g 0 j x G 7 i x  .v v 0 e v m v S v x t C P v k j t ",
"P N 0 a w B x x N f a 6 l a d h x G K e y A / a / H h K v k k u W D D d N G f 3 B a g 6 3 e p 9 ",
"0 w j Y v n u p L 1.h B V b C V D T g u e k B l w s ( K Q g j R v f a & > f r 8 4 z 6 a t s j y ",
"q 5 9 j i l 4 i N l l u B G p b l w q - p m A G j e < z o.M 7 G m Z N m b s p h & m Q F s < k t ",
"4 6 4 a g v Z s C Y F y W d f 7 = 4 v 0 K H m k L U y 0 N D M M c A > M p k H N 0 5 6 c r r h w ",
"y d M t d B m B w G , t 7 m 5 6 r S c z w V ! M x b m 4 f S L h Y t F G m A y y r n 9 1 p d p q ",
"c w s r b f h v s k c 7 a x m g t N C : a V R l 9 p y < N { _ b s 0 m b l j 9 3 n : , < 8 < w 5 ",
"e f 2 8 7 q r 9 g s * u u c M V j M C f m Z Z c r x 0 J ! :.x , 1 < y j s Z 0 8 a b C M l p : 6 ",
"- 3 5 . : - $ % < 6 X p s t d 6 k n l w B m P f 0 8 O j t w g f H s q s s f t 8 p G g i 9 p r < ",
"* > ; g c w q , : v m # q 8 b u z k d q s ( r q 0 % 9 3 # 4 y n g k s = 4 = $ * d t j 9 u u y * ",
"# @ > a t e i e e i 9 4 3 g a 3 h u s A w c d 3 t 3 5 0 * < e p q 9 4 t y r t 2 9 g r l f l * 3 ",
"* < $ u 5 e e 4 4 , 9 ; 6 e l f i d 6 h 3 e G w 1 g j < : < ; : , $ 1 e 1 s r 2 j u B k 7 # 2 : ",
"w q 1 3 7 9 t w 5 r h i > M f < 3 ; < c l u b z u 6 w O ; u 2 & * q j 0 c i i 1 1 d k 6 9 , > & ",
"5 7 d > 8 7 y u a 9 0 4 9 z 6 f d A m w f p 8 8 & a ; @ 6 - 6 % : = i a , < l t 4 u a y - > > y ",
"> - 2 q 2 0 % p s l a 9 5 1 r 5 3 n 8 @ q 0 4 9 1 q > 6 ; y p d p s 9 0 - 9 4 $ j $ = r 1 - - 1 ",
"4 : w l 3 : q & o 8 t 3 1 0 9 k t 6 : ; t s g q r e > u t i V p < a s 9 3 8 ; e i 5 6 z 5 2 , 9 ",
"1 5 u 4 ; 1 1 * 1 5 9 4 1 e j r 5 9 , 8 + 4 9 y - ; e 4 j r 5 , p 9 * a 2 1 e 3 y 6 , , 5 = ; & ",
"4 8 , 6 3 3 > 2 9 3 =   = t q ; 2 q 7 9 7 ; u f 8 ; t f r 8 5 * 4 y 3 * < $ 3 6 * & < * 9 8 + : ",
". X + . 3 : 3 $ > < % $ w 8 - 5 4 5 a 6 @ ; < 8 - r 6 i 8 w * 3 u 4 , ; - # @ & ; ; ; 2 : + ; 7 "
};
